<?xml version="1.0" standalone="no"?>
<!DOCTYPE svg PUBLIC "-//W3C//DTD SVG 20010904//EN"
 "http://www.w3.org/TR/2001/REC-SVG-20010904/DTD/svg10.dtd">
<svg version="1.0" xmlns="http://www.w3.org/2000/svg"
 width="1024.000000pt" height="956.000000pt" viewBox="0 0 1024.000000 956.000000"
 preserveAspectRatio="xMidYMid meet">

<g transform="translate(0.000000,956.000000) scale(0.100000,-0.100000)"
fill="#000000" stroke="none">
<path d="M2105 8735 c-5 -1 -42 -9 -82 -15 -43 -8 -70 -17 -66 -23 3 -6 1 -7
-6 -3 -16 11 -141 -29 -226 -71 -227 -114 -416 -291 -543 -511 -47 -81 -95
-197 -96 -234 -1 -16 -5 -28 -11 -28 -5 0 -3 -5 5 -10 11 -7 11 -10 2 -10 -7
0 -10 -4 -7 -10 3 -5 2 -10 -3 -10 -5 0 -16 -28 -23 -62 -12 -53 -14 -549 -14
-3113 0 -2921 1 -3054 18 -3133 26 -115 49 -179 112 -307 78 -159 250 -362
294 -348 13 4 13 3 2 -5 -10 -7 4 -22 60 -62 102 -72 276 -155 395 -187 l99
-27 545 -2 c489 -2 537 -1 471 11 -41 8 -78 12 -82 9 -4 -2 -10 0 -14 6 -4 6
-11 7 -17 4 -6 -4 -47 -9 -91 -11 -74 -4 -79 -3 -73 14 6 17 5 17 -8 1 -19
-25 -38 -22 -60 10 -20 27 -20 27 0 9 27 -23 43 -22 73 6 14 12 20 15 13 5 -9
-11 -10 -18 -2 -23 14 -8 32 4 24 17 -4 6 0 14 7 19 12 8 12 11 -1 19 -10 6
-11 10 -2 10 6 0 12 7 12 15 0 8 -6 15 -12 15 -7 1 10 10 37 21 28 10 59 18
70 17 12 -2 19 2 17 11 -3 17 17 43 29 35 5 -3 9 -1 9 5 0 5 -5 11 -11 13 -6
2 1 16 15 31 14 16 31 25 36 22 6 -3 10 -1 10 4 0 10 -20 15 -47 12 -7 -1 -13
3 -13 9 0 9 20 14 46 11 17 -2 37 26 24 34 -5 3 -10 14 -9 23 0 11 2 12 6 4 2
-6 8 -10 12 -8 4 3 7 -4 8 -14 1 -11 -2 -22 -8 -25 -5 -4 -9 -16 -9 -28 0 -18
2 -19 10 -7 8 11 10 2 8 -31 -1 -34 -5 -46 -15 -42 -12 5 -17 17 -14 35 0 4
-6 5 -14 2 -20 -8 -20 -10 18 -45 27 -26 28 -29 6 -16 -34 20 -65 5 -36 -18
11 -7 25 -11 32 -9 20 8 30 -17 12 -31 -14 -10 -14 -12 2 -22 11 -7 23 -8 32
-2 10 6 10 9 2 9 -7 0 -13 4 -13 9 0 5 11 9 25 9 15 0 25 -6 25 -15 0 -8 -4
-11 -10 -8 -5 3 -10 -1 -10 -9 0 -9 -6 -16 -14 -16 -8 0 -16 -6 -19 -13 -3 -8
1 -14 9 -14 7 0 11 4 9 8 -3 4 2 10 11 13 24 9 27 7 14 -9 -11 -13 -10 -14 4
-9 9 3 16 12 16 20 0 8 5 14 11 14 5 0 8 -4 4 -10 -3 -5 7 -8 23 -7 18 1 28 7
25 13 -2 7 1 15 8 20 8 5 10 3 4 -6 -6 -9 -4 -11 5 -5 10 6 9 11 -6 22 -16 12
-17 15 -4 23 10 7 11 10 3 10 -18 0 -16 26 4 50 19 22 33 26 33 9 0 -5 -6 -7
-12 -3 -9 5 -9 3 1 -9 7 -9 18 -14 25 -10 8 5 8 3 0 -8 -6 -8 -11 -22 -11 -31
0 -14 3 -15 14 -7 7 6 13 18 13 26 0 18 61 78 79 78 8 0 15 9 17 20 3 18 2 19
-10 3 -10 -14 -15 -15 -25 -5 -7 7 -12 8 -11 2 5 -25 -2 -34 -30 -40 -16 -4
-30 -12 -30 -18 0 -7 -4 -6 -10 3 -5 9 -5 19 2 27 8 10 6 13 -7 13 -10 0 -15
-3 -12 -7 12 -11 -37 -31 -50 -20 -15 11 -18 51 -3 42 6 -3 7 1 4 9 -8 21 25
34 37 15 7 -12 9 -11 9 2 0 8 -5 20 -12 27 -9 9 -9 12 0 12 9 0 10 5 2 19 -13
25 -13 61 1 61 5 0 8 4 5 9 -4 5 3 7 14 4 25 -7 26 -23 3 -23 -15 0 -16 -2 -3
-10 14 -9 7 -14 -13 -11 -4 1 -3 -7 3 -18 5 -11 7 -27 4 -35 -10 -26 19 -18
39 10 14 19 16 28 7 39 -7 8 -7 15 -1 19 12 8 33 -28 23 -39 -4 -5 -1 -5 5 -1
13 7 15 1 16 -42 0 -12 3 -22 6 -22 4 0 7 25 7 55 0 39 -3 55 -13 55 -7 0 -13
8 -13 18 0 13 2 14 9 3 5 -7 13 -11 19 -8 12 8 3 57 -10 54 -6 -1 -13 4 -16
12 -3 8 0 11 7 7 17 -11 24 20 10 46 -11 20 -10 21 2 11 12 -10 15 -8 16 7 1
16 -2 17 -30 9 -18 -5 -34 -9 -37 -9 -3 0 3 -5 13 -11 20 -12 22 -29 4 -54
-13 -17 -14 -17 -12 1 0 11 4 25 9 32 4 6 3 12 -3 12 -5 0 -13 -5 -16 -10 -4
-6 -11 -8 -16 -5 -19 12 -30 -7 -12 -20 17 -13 17 -15 0 -32 -16 -16 -17 -16
-17 0 0 9 -4 17 -9 17 -6 0 -8 -8 -6 -18 2 -10 -2 -19 -9 -19 -19 0 -17 35 3
42 16 5 17 13 12 56 -1 7 -51 7 -51 0 0 -3 7 -12 15 -21 13 -15 13 -17 0 -17
-8 0 -15 5 -15 11 0 6 -5 4 -10 -4 -7 -11 -9 -10 -7 9 1 13 19 39 44 61 47 41
54 55 23 47 -11 -3 -18 -1 -14 4 3 5 11 9 17 9 7 0 18 10 26 23 13 21 13 22
-6 4 -25 -22 -32 -22 -26 3 3 12 0 20 -6 20 -7 0 -9 -5 -5 -12 4 -7 3 -8 -4
-4 -17 10 -15 26 3 26 11 0 14 7 11 26 -4 19 -1 24 10 20 7 -3 14 0 14 6 0 7
7 3 15 -8 18 -24 19 -38 3 -28 -7 5 0 -9 15 -29 22 -29 26 -41 17 -51 -8 -11
-8 -15 2 -19 11 -4 11 -9 0 -27 -16 -27 -6 -42 12 -18 7 10 15 15 18 13 8 -8
68 16 63 25 -3 4 2 10 10 14 19 7 19 22 1 29 -8 3 -13 -1 -12 -11 0 -9 -5 -16
-12 -14 -8 1 -11 -2 -7 -8 3 -5 -1 -10 -9 -10 -9 0 -16 -6 -16 -12 0 -9 -4 -8
-10 2 -12 19 -13 33 -1 26 5 -3 15 2 22 11 12 15 12 16 -3 10 -23 -8 -23 9 0
22 16 10 16 10 0 11 -10 0 -19 6 -19 13 -1 6 -3 23 -4 37 -1 14 -3 31 -4 39
-2 23 -16 2 -17 -27 -1 -15 -2 -35 -3 -44 0 -10 -6 -18 -11 -18 -12 0 -8 126
4 138 4 3 17 7 29 7 19 0 22 5 22 47 1 27 7 53 14 60 9 9 12 9 7 1 -3 -6 -3
-14 2 -17 4 -2 9 4 9 15 1 15 -4 19 -23 16 -14 -2 -29 -8 -32 -13 -9 -13 -54
-16 -46 -3 3 6 13 8 21 5 11 -5 13 -2 9 9 -3 9 -1 15 7 14 26 -3 37 2 37 16 0
8 -8 15 -17 15 -15 0 -14 2 3 19 15 14 22 16 34 7 13 -9 13 -8 3 4 -7 9 -8 21
-3 29 8 14 4 61 -7 71 -3 3 -4 -8 -3 -25 4 -54 1 -61 -14 -39 -10 13 -11 23
-4 31 7 9 7 17 -2 28 -9 10 -9 15 -1 15 6 0 11 5 11 11 0 5 -4 7 -10 4 -5 -3
-10 -2 -10 3 0 16 13 22 26 11 17 -14 30 9 14 24 -10 9 -11 9 -6 0 4 -7 3 -13
-3 -13 -5 0 -12 8 -14 18 -4 16 -5 16 -6 0 -1 -14 -6 -16 -24 -9 -34 13 -73 2
-85 -24 -9 -20 -8 -22 9 -18 10 3 16 10 12 15 -3 6 0 9 7 6 8 -2 16 -10 18
-18 3 -7 0 -10 -7 -6 -6 4 -11 2 -11 -3 0 -6 -3 -10 -7 -10 -23 4 -33 -3 -33
-21 0 -11 5 -20 10 -20 6 0 10 -7 10 -16 0 -8 -4 -12 -10 -9 -6 3 -10 -5 -10
-19 0 -19 4 -24 20 -21 11 2 20 0 20 -6 0 -5 -10 -9 -21 -9 -20 0 -21 -4 -17
-49 4 -44 3 -48 -16 -46 -34 4 -36 5 -36 16 0 5 5 7 10 4 6 -3 10 -1 10 4 0 6
-11 10 -25 9 -16 -2 -24 -7 -21 -15 3 -7 1 -13 -5 -13 -6 0 -7 -5 -4 -10 4 -6
16 -8 28 -4 21 6 21 6 3 -8 -12 -9 -16 -20 -11 -27 6 -10 3 -11 -12 -2 -11 6
-24 7 -28 3 -5 -4 -5 -1 -1 6 4 7 12 10 17 7 5 -4 9 -1 9 4 0 6 -8 11 -17 11
-13 0 -14 3 -5 12 14 14 16 32 3 24 -5 -3 -11 8 -13 25 -3 20 0 33 9 36 17 7
17 39 -1 46 -11 4 -13 -1 -10 -19 2 -13 0 -24 -6 -24 -5 0 -9 3 -9 8 1 4 1 18
0 32 -1 20 -3 22 -11 10 -5 -8 -12 -11 -15 -8 -10 10 4 28 22 28 10 0 13 6 9
16 -3 9 -6 18 -6 20 0 2 -7 4 -15 4 -8 0 -15 -6 -15 -12 0 -7 -7 0 -15 16 -19
36 -19 41 1 21 10 -9 20 -13 23 -8 7 10 28 16 59 16 16 1 22 7 22 24 0 25 -10
29 -27 12 -7 -7 -12 -6 -16 5 -7 17 8 31 22 21 5 -3 12 -1 16 5 4 6 11 7 17 4
6 -4 8 -2 4 4 -3 6 0 17 9 25 13 13 13 16 0 21 -8 3 -15 13 -14 23 0 16 1 16
9 -2 8 -20 11 -18 14 8 1 6 12 11 26 10 25 -2 25 -2 -2 9 -29 12 -35 23 -18
33 6 3 10 1 10 -5 0 -6 5 -8 12 -4 7 5 8 3 3 -6 -6 -10 -4 -12 8 -7 10 3 17 2
17 -2 0 -5 7 -12 16 -15 12 -4 15 -2 11 9 -4 8 -2 17 4 20 5 4 7 11 4 16 -14
21 8 30 26 10 20 -21 21 -41 4 -53 -6 -5 -5 -8 4 -8 11 0 11 -3 1 -15 -7 -8
-17 -12 -24 -8 -6 3 -8 3 -4 -2 4 -4 3 -14 -3 -22 -9 -9 -8 -13 0 -13 6 0 11
5 11 11 0 5 5 7 10 4 6 -3 10 -1 10 6 0 8 4 8 15 -1 8 -7 15 -11 16 -9 6 31 6
39 0 39 -4 0 -6 21 -4 47 4 58 11 136 12 144 1 3 12 4 26 1 14 -2 22 -8 19
-14 -3 -5 -1 -15 6 -23 8 -10 8 -15 -1 -21 -7 -4 -9 -3 -5 4 4 7 -1 10 -14 9
-21 -1 -28 -17 -7 -17 8 0 7 -4 -3 -10 -19 -12 -8 -13 24 0 16 6 27 6 31 -1 4
-5 3 -9 -2 -8 -20 3 -27 -2 -13 -11 8 -5 11 -12 7 -16 -3 -4 -14 -1 -23 7 -15
12 -17 12 -12 -1 2 -8 14 -16 26 -18 12 -2 20 -8 17 -13 -4 -5 -1 -9 6 -9 9 0
8 -4 -1 -15 -6 -8 -10 -20 -7 -27 4 -8 6 -7 6 5 1 9 6 17 11 17 6 0 8 11 6 24
-4 20 -1 23 16 18 14 -3 16 -7 7 -13 -10 -6 -9 -12 6 -29 l19 -21 -29 6 -30 6
25 -21 c22 -19 25 -20 28 -6 2 9 8 13 15 9 7 -4 5 1 -3 11 -8 11 -13 29 -12
42 2 13 -1 24 -7 24 -6 0 -11 7 -11 16 0 8 4 13 9 10 5 -4 7 3 4 14 -3 11 0
20 6 20 6 0 9 18 7 47 -3 29 0 51 7 55 8 5 6 8 -6 8 -15 0 -16 3 -7 20 9 16 8
22 -6 27 -9 3 -20 0 -25 -8 -6 -10 -9 -10 -9 -1 0 7 -13 12 -29 12 -33 0 -66
29 -35 31 11 1 23 1 27 0 5 -1 6 2 3 7 -6 10 -42 9 -52 -1 -4 -4 0 -15 8 -24
9 -10 15 -31 14 -46 -1 -24 0 -26 10 -12 10 13 12 11 16 -15 3 -17 0 -34 -5
-37 -6 -3 -7 -1 -4 4 4 6 0 13 -8 17 -10 3 -15 -1 -16 -12 -1 -11 -4 -8 -9 8
-6 19 -8 21 -9 6 -2 -43 -16 0 -19 57 -8 188 0 349 18 355 8 3 10 0 5 -7 -8
-14 2 -61 13 -61 5 0 7 13 4 30 -3 23 0 30 12 30 10 0 15 -4 12 -9 -3 -5 1
-14 9 -21 13 -10 15 -9 15 9 0 11 6 21 14 21 16 0 28 -24 20 -43 -3 -8 1 -14
9 -14 7 0 14 5 15 11 0 6 4 35 8 64 6 45 8 50 20 35 7 -10 10 -22 6 -28 -3 -5
1 -4 10 2 8 7 18 11 21 8 4 -3 4 -2 1 2 -3 5 -11 8 -17 8 -7 0 -13 8 -15 18
-2 9 2 17 8 17 6 0 9 -4 6 -9 -8 -13 67 -10 77 3 5 8 10 6 16 -3 7 -11 13 -12
23 -3 10 8 157 11 508 12 271 0 496 3 499 5 2 3 -389 6 -870 6 -822 2 -1186 3
-1546 7 l-153 2 0 2075 0 2075 1262 0 c694 0 1259 2 1256 5 -2 3 -335 5 -738
5 -562 1 -737 3 -749 13 -12 9 -13 9 -7 0 5 -10 -21 -12 -113 -11 -102 2 -118
4 -108 16 7 9 13 10 15 3 2 -6 9 -8 15 -4 23 14 615 17 631 4 9 -7 16 -7 24 1
9 9 18 9 37 0 15 -7 24 -8 20 -2 -4 6 9 10 32 10 358 3 523 6 523 13 0 4 -128
7 -284 7 -157 0 -287 4 -290 9 -8 12 29 43 39 34 4 -5 5 -2 1 5 -4 6 -2 12 3
12 6 0 11 5 11 11 0 8 -4 8 -13 0 -10 -8 -17 -7 -26 2 -15 15 -32 -7 -24 -32
4 -14 3 -14 -6 -1 -11 16 -15 8 -11 -25 3 -27 -8 -15 -14 16 -2 13 -5 26 -6
29 -2 3 -2 8 -2 11 1 3 -4 6 -11 6 -15 0 -19 -48 -5 -64 8 -10 3 -13 -20 -13
-42 0 -49 16 -21 48 19 21 19 23 3 9 -11 -9 -24 -14 -27 -10 -6 6 -11 -20 -8
-40 1 -4 -82 -7 -184 -6 -143 2 -188 5 -196 16 -7 7 -9 16 -5 20 3 3 6 1 6 -5
0 -7 11 -12 25 -12 14 0 25 4 25 9 0 5 8 7 18 4 15 -4 19 1 17 24 -1 28 -1 28
-64 25 -69 -2 -84 -7 -75 -25 3 -7 -4 -1 -15 13 -11 14 -21 20 -21 13 0 -6 -3
-19 -7 -29 -5 -13 -3 -15 8 -9 8 4 11 5 7 0 -4 -4 -3 -16 3 -27 9 -17 8 -19
-13 -16 -15 2 -23 9 -22 20 1 10 -3 15 -8 12 -6 -4 -2 5 7 20 l17 26 -38 1
c-35 1 -63 0 -89 -4 -5 -1 -14 13 -20 31 -6 18 -15 29 -20 25 -4 -5 -5 -3 -1
4 3 6 15 11 26 10 15 -1 20 -9 20 -30 0 -15 4 -26 10 -22 5 3 7 22 4 42 -4 33
-3 34 13 22 9 -8 14 -9 10 -2 -5 7 1 13 15 16 20 4 19 4 -4 6 -16 0 -28 6 -28
11 0 6 3 9 8 9 4 -1 18 -1 32 0 19 1 21 4 11 10 -8 5 -24 7 -36 5 -16 -3 -22
1 -21 12 0 9 -6 19 -14 21 -10 3 -11 2 -4 -4 7 -5 8 -16 3 -28 l-8 -20 0 20
c-1 15 -3 17 -10 6 -5 -7 -6 -21 -4 -31 3 -10 1 -20 -4 -23 -5 -3 -8 7 -7 21
1 15 -3 38 -8 51 -7 19 -6 22 4 13 9 -7 17 -6 26 4 11 12 9 17 -8 16 -3 0 -7
8 -7 19 -1 10 1 19 5 19 4 0 9 12 10 28 1 15 7 29 12 30 6 2 10 8 10 13 0 6
-4 7 -10 4 -5 -3 -10 1 -10 9 0 19 -17 21 -22 4 -3 -8 -7 -6 -11 5 -3 9 -3 16
1 16 20 -3 32 3 32 16 0 12 4 13 19 6 10 -6 21 -7 25 -4 3 3 6 1 6 -5 0 -7 -9
-12 -20 -12 -11 0 -20 -4 -20 -10 0 -13 16 -13 40 0 16 8 18 8 14 -5 -4 -8
-12 -15 -19 -15 -25 0 -24 -30 1 -60 14 -16 21 -30 15 -30 -6 0 -11 4 -11 9 0
5 -9 11 -21 14 -12 3 -18 3 -15 0 3 -3 -2 -12 -12 -19 -15 -12 -14 -13 10 -8
15 2 30 -1 34 -7 5 -8 3 -9 -5 -4 -9 5 -12 0 -9 -16 2 -15 9 -23 18 -20 8 2
22 4 31 3 25 -1 31 55 7 61 -10 3 -18 11 -18 19 0 8 3 9 8 2 4 -6 15 -14 26
-17 14 -6 17 -4 12 9 -3 8 -6 19 -6 24 0 4 -7 7 -16 6 -9 0 -19 6 -21 14 -4
13 -3 13 6 0 5 -8 13 -12 16 -8 3 3 -1 13 -10 22 -15 15 -15 16 5 16 14 0 20
5 18 16 -2 10 3 19 10 21 6 3 12 -2 12 -11 0 -8 5 -18 11 -21 13 -9 8 27 -6
37 -5 4 -10 13 -10 20 0 7 -9 17 -21 23 -20 10 -20 10 -1 30 11 11 17 14 13 8
-4 -7 2 -20 14 -30 11 -10 20 -25 20 -35 0 -10 5 -18 12 -18 6 0 9 -3 5 -6 -3
-4 2 -14 11 -23 10 -9 13 -13 8 -9 -5 4 -16 3 -25 -2 -9 -5 -24 -11 -35 -14
-13 -5 -15 -10 -8 -19 11 -15 12 -48 1 -62 -4 -6 1 -28 11 -50 10 -22 19 -34
19 -27 1 6 13 12 27 12 23 0 25 -3 19 -31 -6 -25 -4 -30 6 -24 11 6 12 5 2 -6
-7 -7 -13 -28 -13 -46 0 -19 5 -33 13 -34 26 -3 52 3 62 13 7 8 5 9 -7 5 -14
-5 -18 -1 -18 19 0 14 -4 23 -8 20 -4 -2 -9 6 -10 20 -1 13 2 24 6 24 4 0 9
12 10 27 3 34 6 37 31 24 13 -7 22 -8 26 -1 3 5 15 10 25 10 24 0 31 12 19 30
-8 13 -10 13 -18 1 -5 -8 -14 -10 -21 -6 -8 5 -11 4 -7 -1 3 -5 -17 -10 -44
-10 -27 0 -49 3 -49 8 0 4 6 7 12 6 7 -2 14 7 16 20 2 12 13 27 24 33 15 8 19
8 14 0 -4 -6 0 -14 8 -17 9 -3 13 -11 9 -17 -4 -6 -11 -3 -20 8 -7 11 -13 17
-14 14 0 -2 -2 -12 -4 -21 -3 -15 2 -17 27 -13 17 3 39 10 48 15 10 5 21 6 25
2 4 -4 0 7 -10 23 -13 23 -13 26 -1 11 9 -11 16 -14 16 -7 0 7 4 9 10 6 5 -3
20 -8 32 -10 20 -4 21 -3 6 12 -15 15 -15 17 5 35 12 11 16 16 8 13 -10 -6
-11 -2 -6 14 4 12 2 21 -4 21 -6 0 -11 -8 -11 -18 0 -28 -10 -33 -34 -16 -13
8 -25 12 -28 9 -2 -3 -5 8 -5 25 0 18 4 27 11 23 6 -4 4 2 -4 12 -13 16 -13
18 0 13 9 -3 15 -17 15 -35 0 -29 15 -38 32 -18 4 4 2 5 -4 1 -7 -4 -13 -2
-13 3 0 6 11 11 24 11 23 0 37 17 35 43 0 7 -4 2 -9 -10 -6 -15 -17 -23 -32
-22 -22 2 -22 2 -2 6 16 3 21 11 20 29 0 13 -5 22 -11 20 -5 -2 -9 -9 -7 -16
2 -10 0 -11 -11 -2 -8 7 -16 10 -18 7 -3 -2 -5 6 -5 20 0 13 4 21 8 19 5 -3 5
-10 2 -16 -5 -8 -1 -9 10 -5 10 4 21 7 24 7 4 0 0 5 -8 10 -12 8 -10 10 8 10
13 0 21 4 18 9 -3 5 -16 7 -27 4 -20 -6 -21 -3 -14 36 8 47 2 51 -26 19 l-20
-23 13 25 c7 14 18 28 23 32 6 5 5 8 -2 8 -7 0 -13 7 -13 16 0 9 -5 12 -12 8
-7 -4 -8 -3 -4 5 5 8 12 9 20 2 15 -13 30 -2 34 24 2 18 2 19 -8 2 -8 -12 -18
-15 -36 -11 -14 4 -24 2 -24 -5 0 -6 -6 -8 -14 -5 -18 7 -14 33 7 49 9 7 14
15 10 18 -3 4 -12 2 -20 -4 -9 -9 -13 -8 -13 0 0 6 5 11 11 11 5 0 7 5 3 12
-4 7 -3 8 4 4 7 -4 12 -1 12 6 1 8 5 7 14 -5 8 -11 17 -14 20 -8 4 5 2 12 -4
16 -6 4 -8 10 -5 15 3 5 0 12 -6 16 -8 4 -9 3 -5 -4 10 -17 -41 -27 -59 -12
-12 10 -15 9 -15 -4 0 -23 4 -31 13 -29 10 4 9 -5 -4 -29 -9 -16 -8 -19 3 -12
7 4 5 -1 -4 -12 -18 -21 -15 -56 6 -83 8 -11 8 -13 -1 -8 -6 4 -14 3 -18 -3
-3 -5 1 -10 9 -10 26 0 26 -15 1 -53 -14 -20 -25 -44 -25 -54 0 -15 -2 -16
-10 -3 -5 8 -5 19 0 25 12 14 0 30 -27 37 -17 5 -23 2 -23 -10 0 -13 -2 -14
-8 -4 -6 9 -16 10 -34 3 -23 -9 -25 -7 -21 10 4 13 13 19 27 18 11 0 24 0 29
1 4 1 13 3 20 4 6 1 11 7 10 14 -2 7 2 12 7 12 6 0 10 -7 10 -16 0 -8 5 -12
11 -9 7 5 5 13 -7 26 -15 17 -15 19 0 34 21 21 21 22 -14 22 -16 0 -30 -5 -30
-11 0 -6 -4 -5 -9 3 -7 11 -11 10 -20 -6 -5 -11 -7 -24 -3 -28 4 -5 1 -5 -7 0
-10 6 -12 2 -7 -16 6 -21 5 -22 -4 -6 -9 14 -9 22 1 33 10 12 9 13 -5 8 -9 -3
-17 -16 -17 -28 -1 -17 -2 -18 -6 -3 -3 10 0 24 7 32 8 10 8 14 -2 18 -8 3 -6
6 5 6 14 1 16 5 7 21 -6 12 -17 17 -28 14 -14 -5 -14 -4 -2 4 8 6 17 9 21 6 4
-2 10 3 13 12 3 8 11 12 17 8 8 -4 9 -3 5 5 -4 6 -11 9 -15 7 -4 -3 -8 1 -8 9
0 12 12 14 52 11 41 -3 54 0 63 14 8 14 7 22 -4 36 -12 15 -14 15 -11 3 3 -9
2 -22 -3 -28 -5 -9 -7 -4 -7 13 0 30 15 45 27 25 7 -10 14 -10 34 -1 16 7 26
8 26 2 0 -6 -4 -10 -10 -10 -5 0 -10 -5 -10 -11 0 -8 5 -7 16 2 8 7 13 21 11
31 -3 10 -2 16 3 13 4 -3 13 2 20 10 7 8 16 12 21 9 11 -7 11 -1 0 30 -7 17
-7 26 1 28 6 2 12 11 14 19 1 12 -6 15 -31 14 -37 -3 -64 8 -46 19 6 4 11 2
11 -4 0 -6 5 -8 10 -5 6 4 8 10 5 15 -3 4 1 11 7 13 10 4 9 8 -2 16 -12 8 -10
12 10 20 14 5 22 10 18 10 -4 1 -2 15 4 31 8 24 7 35 -6 54 -14 22 -14 24 4
19 13 -4 20 0 20 10 0 8 7 17 15 21 15 5 21 -19 17 -66 -1 -10 3 -18 8 -18 6
0 10 5 10 11 0 8 6 7 18 -2 16 -13 16 -12 1 6 -9 11 -14 26 -11 34 3 8 0 11
-7 7 -7 -5 -9 -1 -5 8 3 9 14 16 23 16 14 0 14 2 1 11 -12 9 -11 10 7 6 12 -3
21 0 20 5 -1 6 6 12 16 13 9 2 17 -2 18 -8 0 -7 4 -3 8 8 11 26 6 31 -14 15
-13 -11 -15 -10 -14 6 4 39 -1 55 -13 48 -16 -10 9 25 31 44 9 7 11 12 3 12
-7 0 -12 10 -12 23 0 13 -6 29 -12 36 -7 7 -8 11 -3 9 13 -4 15 4 15 48 0 21
-4 33 -10 29 -19 -12 -10 11 10 25 22 16 27 40 9 40 -8 0 -8 5 1 15 9 11 10
15 1 15 -14 0 -12 47 3 70 6 8 6 12 2 8 -5 -4 -15 -3 -23 3 -9 9 -13 8 -14 0
-1 -6 -2 -16 -3 -23 0 -6 -6 -13 -13 -15 -10 -4 -11 15 -3 37 1 3 2 8 1 12 0
4 8 5 19 3 11 -2 20 1 20 6 0 6 5 7 10 4 6 -3 10 1 10 9 0 31 -65 18 -93 -19
-4 -6 -7 -2 -5 9 2 12 -4 20 -15 22 -25 3 -35 14 -14 14 10 0 17 3 17 8 0 10
62 9 78 -1 8 -6 12 -1 12 17 0 14 5 26 11 26 5 0 7 5 3 11 -5 8 -9 8 -14 -1
-5 -8 -10 -9 -14 -2 -3 6 -2 13 4 17 6 4 7 13 1 23 -4 9 -7 25 -6 35 2 9 -1
15 -6 11 -5 -3 -9 -12 -9 -20 0 -8 -8 -14 -17 -14 -10 0 -25 -5 -33 -10 -13
-9 -13 -11 0 -21 13 -9 12 -10 -2 -5 -10 3 -20 1 -23 -4 -9 -15 -22 -12 -22 4
0 9 7 12 16 9 13 -5 14 -3 4 7 -9 9 -16 10 -25 3 -28 -23 -53 -19 -75 11 -13
16 -23 31 -23 32 0 2 11 15 24 29 19 21 25 23 30 10 4 -11 13 -14 32 -9 18 5
25 3 20 -4 -3 -6 0 -13 6 -15 7 -3 3 -6 -9 -6 -13 -1 -23 -5 -23 -10 0 -15 18
-23 25 -11 3 5 11 10 16 10 6 0 7 -4 4 -10 -3 -5 1 -10 9 -10 9 0 16 5 16 11
0 5 6 7 13 4 6 -4 4 0 -6 8 -16 13 -16 16 -2 27 9 8 15 9 13 4 -2 -5 2 -10 7
-11 6 -2 10 5 10 15 -1 24 13 31 44 22 14 -4 41 -6 60 -4 23 3 38 -1 47 -13
11 -14 14 -14 12 -3 -3 16 30 22 137 21 84 -1 127 -9 119 -24 -5 -9 -3 -8 7 1
17 16 24 15 43 -3 13 -13 15 -13 21 6 6 17 9 19 17 8 7 -11 11 -11 15 -1 2 6
9 12 14 12 6 0 7 -4 4 -10 -3 -5 -2 -10 4 -10 5 0 11 6 14 13 3 9 66 12 270
12 146 0 269 3 273 8 7 6 -2259 9 -2281 2z m1025 -9 c0 -3 -4 -8 -10 -11 -5
-3 -10 -1 -10 4 0 6 5 11 10 11 6 0 10 -2 10 -4z m-35 -17 c-4 -5 -1 -9 6 -9
8 0 9 -3 4 -9 -19 -18 -37 -16 -41 4 -2 15 2 21 17 22 11 1 17 -2 14 -8z m165
7 c0 -2 -7 -7 -16 -10 -8 -3 -12 -2 -9 4 6 10 25 14 25 6z m-456 -42 c3 -8 2
-12 -4 -9 -6 3 -10 10 -10 16 0 14 7 11 14 -7z m39 -25 c-4 -15 -8 -17 -14 -8
-8 14 -3 29 11 29 4 0 6 -9 3 -21z m71 -14 c11 -8 16 -15 10 -15 -5 0 -18 7
-28 15 -11 8 -16 15 -10 15 5 0 18 -7 28 -15z m178 0 c0 -5 -5 -11 -11 -13 -6
-2 -11 4 -11 13 0 9 5 15 11 13 6 -2 11 -8 11 -13z m32 -14 c3 -5 -3 -11 -15
-14 -16 -4 -18 -3 -8 9 13 16 16 17 23 5z m11 -49 c3 -9 1 -18 -5 -20 -7 -3
-5 -9 5 -16 14 -10 14 -14 -8 -34 l-24 -23 1 23 c1 13 7 22 14 20 10 -2 10 2
0 17 -7 11 -16 17 -22 14 -5 -3 -6 -1 -2 5 4 6 14 9 24 6 14 -5 14 -4 3 4 -18
13 -39 5 -44 -16 -3 -10 -4 -3 -3 13 1 27 4 30 28 27 15 -2 29 -11 33 -20z
m52 11 c-4 -3 -2 -12 4 -20 9 -10 8 -13 -2 -13 -11 0 -11 -2 1 -10 10 -7 11
-10 2 -10 -7 0 -17 12 -22 26 -13 33 -13 34 7 34 9 0 13 -3 10 -7z m-142 -33
c3 -6 -1 -7 -9 -4 -9 3 -16 1 -16 -5 0 -6 5 -11 10 -11 6 0 10 -13 10 -30 0
-16 -5 -30 -11 -30 -5 0 -8 -4 -4 -9 3 -5 1 -12 -5 -16 -5 -3 -10 -2 -10 4 0
6 -7 8 -15 5 -10 -4 -15 0 -15 11 0 11 6 15 19 10 12 -3 21 0 24 9 4 10 1 13
-7 10 -7 -3 -16 2 -19 10 -4 11 -1 13 11 9 14 -6 15 -4 5 8 -10 12 -10 18 -1
27 15 15 25 15 33 2z m47 -27 c-10 -4 -10 -8 -1 -19 6 -8 8 -14 3 -14 -5 0 -9
-11 -9 -24 0 -13 2 -23 4 -21 6 7 31 -23 31 -37 0 -10 -3 -9 -10 2 -7 11 -10
5 -10 -22 0 -21 -4 -38 -9 -38 -13 0 -20 -25 -14 -49 4 -18 8 -19 20 -9 8 7
20 13 27 14 6 1 26 4 45 7 32 5 33 4 27 -21 -4 -15 -7 -32 -8 -39 -1 -7 -5
-10 -9 -7 -5 2 -6 11 -2 19 4 11 1 13 -11 9 -10 -4 -16 -1 -16 8 0 22 -40 15
-61 -10 -23 -29 -27 -28 -21 4 4 21 2 25 -8 19 -10 -6 -11 -4 -5 11 15 36 18
174 3 191 -9 12 -9 15 0 9 7 -4 12 -1 12 8 0 9 8 16 18 15 11 0 12 -2 4 -6z
m106 -15 c-2 -7 5 -12 15 -12 22 2 22 1 -5 -22 -21 -19 -21 -19 -14 0 6 17 5
17 -11 5 -11 -9 -14 -10 -9 -1 4 7 0 15 -11 19 -16 6 -15 8 7 14 14 4 26 7 28
8 1 1 1 -5 0 -11z m-228 -13 c0 -2 -9 -3 -19 -2 -11 0 -18 5 -15 9 4 6 34 0
34 -7z m190 -47 c0 -4 -4 -8 -10 -8 -5 0 -10 -4 -10 -9 0 -5 8 -8 18 -6 9 1
16 9 14 19 -3 16 13 22 22 8 3 -5 7 -21 10 -36 3 -15 10 -34 16 -41 9 -10 7
-16 -9 -24 -26 -15 -31 -14 -25 4 4 8 10 12 15 9 5 -3 6 2 2 12 -5 15 -7 15
-15 0 -7 -13 -12 -13 -28 -4 -17 11 -17 13 -3 23 13 10 13 14 3 20 -8 5 -11 4
-7 -2 3 -5 0 -10 -7 -10 -9 0 -13 15 -13 45 0 41 1 43 13 27 8 -10 14 -22 14
-27z m-240 12 c0 -5 -2 -10 -4 -10 -3 0 -8 5 -11 10 -3 6 -1 10 4 10 6 0 11
-4 11 -10z m343 -19 c3 -12 0 -18 -7 -15 -6 2 -12 14 -13 24 -2 25 13 18 20
-9z m-223 -11 c0 -5 -5 -10 -11 -10 -5 0 -7 5 -4 10 3 6 8 10 11 10 2 0 4 -4
4 -10z m210 -40 c-8 -5 -17 -6 -20 -3 -3 3 1 8 8 10 6 3 9 10 6 16 -4 7 -1 7
7 -1 12 -11 12 -14 -1 -22z m52 -15 c-6 -34 -12 -32 -12 6 0 16 4 28 9 25 4
-3 6 -17 3 -31z m-171 -2 c13 -16 12 -17 -3 -4 -10 7 -18 15 -18 17 0 8 8 3
21 -13z m-71 -7 c0 -2 -8 -10 -17 -17 -16 -13 -17 -12 -4 4 13 16 21 21 21 13z
m204 -5 c9 -14 -5 -42 -16 -35 -6 4 -8 1 -6 -7 3 -8 13 -13 22 -13 13 2 14 -1
5 -12 -7 -8 -9 -17 -5 -21 3 -4 13 2 21 13 9 12 14 14 15 6 0 -7 -6 -20 -14
-27 -11 -12 -17 -10 -37 11 -24 25 -33 64 -15 61 6 -1 10 6 10 16 -2 18 11 23
20 8z m46 -26 c-14 -17 -45 -21 -35 -5 4 6 11 8 16 5 5 -4 12 1 15 10 4 9 9
14 12 11 3 -3 -1 -12 -8 -21z m-156 7 c-5 -4 -12 -11 -15 -15 -3 -5 -9 -2 -12
5 -3 9 3 14 15 15 11 1 16 -1 12 -5z m-53 -25 c-13 -13 -26 -3 -16 12 3 6 11
8 17 5 6 -4 6 -10 -1 -17z m-161 -31 c0 -2 -7 -6 -15 -10 -8 -3 -15 -1 -15 4
0 6 7 10 15 10 8 0 15 -2 15 -4z m290 -6 c0 -5 -4 -10 -10 -10 -5 0 -10 5 -10
10 0 6 5 10 10 10 6 0 10 -4 10 -10z m26 -57 c1 -16 0 -22 -3 -15 -3 6 -9 10
-14 6 -10 -6 -12 7 -3 31 8 21 17 12 20 -22z m47 -7 c-5 -23 -33 -46 -33 -27
0 5 5 11 10 13 6 2 12 13 13 25 0 12 4 20 8 18 3 -3 4 -16 2 -29z m-208 -14
c-3 -3 -11 0 -18 7 -9 10 -8 11 6 5 10 -3 15 -9 12 -12z m90 9 c-9 -8 -36 -10
-30 -2 2 4 11 8 20 8 8 0 13 -3 10 -6z m55 -23 c0 -4 -5 -10 -12 -14 -7 -5 -8
-3 -3 6 6 9 4 12 -6 8 -9 -4 -15 1 -15 12 0 14 4 15 18 6 10 -6 18 -14 18 -18z
m-275 12 c3 -5 1 -10 -4 -10 -6 0 -11 5 -11 10 0 6 2 10 4 10 3 0 8 -4 11 -10z
m132 -16 c-3 -3 -12 -4 -19 -1 -8 3 -5 6 6 6 11 1 17 -2 13 -5z m-37 -35 c0
-11 -4 -18 -10 -14 -5 3 -7 12 -3 20 7 21 13 19 13 -6z m-160 -33 c0 -3 -4 -8
-10 -11 -5 -3 -10 -1 -10 4 0 6 5 11 10 11 6 0 10 -2 10 -4z m-67 -23 c-3 -7
-6 -13 -8 -13 -2 0 -5 6 -8 13 -3 8 1 14 8 14 7 0 11 -6 8 -14z m37 13 c0 -3
-4 -8 -10 -11 -5 -3 -10 -1 -10 4 0 6 5 11 10 11 6 0 10 -2 10 -4z m105 -16
c3 -5 1 -10 -4 -10 -6 0 -11 5 -11 10 0 6 2 10 4 10 3 0 8 -4 11 -10z m82 4
c-3 -3 -12 -4 -19 -1 -8 3 -5 6 6 6 11 1 17 -2 13 -5z m43 -14 c0 -5 -4 -10
-10 -10 -5 0 -10 5 -10 10 0 6 5 10 10 10 6 0 10 -4 10 -10z m-260 -92 c0 -19
-16 -5 -17 14 -2 18 0 20 7 8 5 -8 10 -18 10 -22z m0 -28 c0 -5 -2 -10 -4 -10
-3 0 -8 5 -11 10 -3 6 -1 10 4 10 6 0 11 -4 11 -10z m46 -22 c10 -13 15 -20
10 -16 -5 4 -17 3 -27 -3 -13 -6 -19 -6 -19 1 0 5 7 10 16 10 8 0 12 5 9 10
-4 6 -11 7 -17 4 -7 -4 -8 -2 -4 4 9 16 10 16 32 -10z m234 1 c0 -6 -4 -7 -10
-4 -5 3 -10 11 -10 16 0 6 5 7 10 4 6 -3 10 -11 10 -16z m-168 -41 c-8 -8 -9
-4 -5 13 4 13 8 18 11 10 2 -7 -1 -18 -6 -23z m112 7 c-7 -16 -24 -21 -24 -6
0 8 7 13 27 20 1 1 0 -6 -3 -14z m-224 -4 c0 -6 -4 -12 -8 -15 -5 -3 -9 1 -9
9 0 8 4 15 9 15 4 0 8 -4 8 -9z m170 -3 c0 -4 -4 -8 -9 -8 -6 0 -12 4 -15 8
-3 5 1 9 9 9 8 0 15 -4 15 -9z m150 -20 c0 -16 -3 -18 -13 -9 -19 15 -30 1
-14 -17 10 -13 9 -14 -8 -5 -11 6 -27 9 -35 6 -8 -2 -5 2 8 8 12 7 22 18 22
25 0 13 20 24 33 17 4 -2 7 -13 7 -25z m-297 -21 c-3 -5 -9 -3 -14 4 -4 7 -5
17 -2 22 3 5 9 3 14 -4 4 -7 5 -17 2 -22z m180 9 c25 -19 21 -26 -8 -13 -14 7
-25 15 -25 20 0 11 13 8 33 -7z m-63 -44 c-3 -44 -1 -52 15 -52 8 0 12 6 9 13
-9 23 18 37 40 21 19 -14 19 -14 -2 -14 -12 0 -22 -5 -22 -11 0 -6 9 -8 23 -4
l22 7 -23 -17 c-12 -9 -27 -13 -32 -10 -6 3 -10 -1 -10 -9 0 -20 -17 -29 -26
-15 -4 8 -3 9 4 5 17 -10 15 9 -3 24 -8 6 -20 9 -27 5 -7 -4 -4 1 6 9 17 14
16 20 -5 18 -3 -1 -6 5 -6 13 0 8 4 12 8 10 10 -7 20 25 12 37 -4 7 -1 8 6 4
7 -5 12 -20 11 -34z m40 18 c0 -5 -4 -10 -10 -10 -5 0 -10 5 -10 10 0 6 5 10
10 10 6 0 10 -4 10 -10z m-180 -32 c0 -26 -13 -16 -17 13 -2 12 1 18 7 14 5
-3 10 -16 10 -27z m284 14 c3 -5 -1 -9 -9 -9 -8 0 -12 4 -9 9 3 4 7 8 9 8 2 0
6 -4 9 -8z m-263 -39 c-10 -4 -10 -7 -1 -13 9 -5 9 -9 1 -14 -6 -4 -11 -1 -11
6 0 11 -2 10 -9 0 -7 -11 -9 -10 -14 3 -4 10 -3 14 4 10 6 -4 13 3 16 15 4 16
8 18 17 9 8 -8 7 -13 -3 -16z m216 5 c-3 -8 -6 -5 -6 6 -1 11 2 17 5 13 3 -3
4 -12 1 -19z m35 -50 c-7 -7 -8 -17 -2 -27 7 -13 3 -17 -16 -19 -16 -1 -24 3
-24 14 0 9 5 12 13 8 7 -5 6 0 -3 11 -8 10 -10 16 -5 13 6 -4 17 -3 25 3 21
12 26 11 12 -3z m-239 -12 c3 3 3 -4 0 -16 -4 -13 0 -25 8 -31 10 -6 7 -8 -9
-6 -12 0 -22 5 -22 9 0 4 -6 7 -12 6 -15 -3 -18 34 -4 44 6 4 15 3 22 -2 6 -6
13 -7 17 -4z m302 -11 c0 -10 -7 -19 -16 -20 -12 -2 -15 3 -11 22 5 27 27 26
27 -2z m-205 -5 c0 -5 -7 -7 -15 -4 -8 4 -15 8 -15 10 0 2 7 4 15 4 8 0 15 -4
15 -10z m90 -25 c0 -3 -8 -2 -17 3 -10 5 -24 7 -30 5 -7 -3 -13 0 -13 7 0 6 4
9 9 5 5 -3 12 -1 16 5 6 10 35 -11 35 -25z m-60 -25 c-9 -6 -8 -14 5 -34 14
-21 15 -30 6 -39 -10 -9 -12 -9 -11 3 4 27 0 40 -11 40 -5 0 -7 -4 -4 -10 3
-5 -1 -10 -9 -10 -8 0 -14 8 -13 19 0 11 4 18 8 15 4 -2 9 6 12 17 4 13 10 18
17 14 9 -6 9 -9 0 -15z m60 4 c0 -2 -5 -13 -12 -23 -9 -15 -15 -17 -29 -8 -17
10 -17 13 -3 28 13 15 44 16 44 3z m37 -6 c-3 -8 -6 -5 -6 6 -1 11 2 17 5 13
3 -3 4 -12 1 -19z m-194 -33 c4 -8 2 -17 -3 -20 -6 -4 -10 3 -10 14 0 25 6 27
13 6z m-63 -41 c0 -8 -5 -12 -10 -9 -6 4 -8 11 -5 16 9 14 15 11 15 -7z m79
-10 c-6 -8 -15 -12 -18 -8 -3 4 0 9 7 11 6 3 9 10 6 15 -4 7 -2 8 5 4 9 -6 9
-11 0 -22z m-62 -26 c-3 -8 -6 -5 -6 6 -1 11 2 17 5 13 3 -3 4 -12 1 -19z
m-10 -40 c-20 -13 -27 -9 -27 12 0 18 3 19 20 8 14 -9 16 -14 7 -20z m28 -18
c3 -6 -1 -7 -9 -4 -18 7 -21 14 -7 14 6 0 13 -4 16 -10z m-135 -52 c0 -6 -6
-5 -15 2 -8 7 -15 14 -15 16 0 2 7 1 15 -2 8 -4 15 -11 15 -16z m143 -2 c3 -8
0 -17 -7 -19 -10 -4 -12 1 -9 14 6 23 9 24 16 5z m147 4 c0 -5 -4 -10 -10 -10
-5 0 -10 5 -10 10 0 6 5 10 10 10 6 0 10 -4 10 -10z m-198 -12 c-10 -10 -5
-16 20 -30 18 -9 26 -17 18 -18 -13 0 -13 -1 0 -10 12 -8 12 -10 1 -10 -8 0
-20 8 -27 18 -12 15 -12 15 -7 -5 3 -13 9 -23 14 -23 33 0 49 -21 36 -45 -6
-11 -10 -24 -9 -28 1 -5 -2 -6 -7 -3 -5 4 -16 -3 -24 -14 -20 -28 -26 -9 -20
59 2 29 0 51 -5 47 -4 -3 -8 7 -7 22 1 29 11 52 23 52 3 0 1 -5 -6 -12z m343
-56 c-3 -3 -11 0 -18 7 -9 10 -8 11 6 5 10 -3 15 -9 12 -12z m-429 -7 c-1 -8
-8 -21 -16 -28 -7 -6 -11 -7 -8 -2 3 6 8 18 11 28 8 21 16 23 13 2z m189 -3
c-3 -3 -11 0 -18 7 -9 10 -8 11 6 5 10 -3 15 -9 12 -12z m235 -6 c0 -3 -4 -8
-10 -11 -5 -3 -10 -1 -10 4 0 6 5 11 10 11 6 0 10 -2 10 -4z m-121 -29 c0 -9
-2 -9 -5 -1 -3 7 -15 10 -27 8 -21 -4 -21 -4 -2 5 23 10 35 5 34 -12z m131 4
c0 -5 -7 -12 -16 -15 -14 -5 -15 -4 -4 9 14 17 20 19 20 6z m-83 -23 c-3 -8
-6 -5 -6 6 -1 11 2 17 5 13 3 -3 4 -12 1 -19z m-77 -14 c0 -8 -4 -12 -10 -9
-5 3 -10 10 -10 16 0 5 5 9 10 9 6 0 10 -7 10 -16z m75 -14 c3 -5 1 -10 -4
-10 -6 0 -11 5 -11 10 0 6 2 10 4 10 3 0 8 -4 11 -10z m-317 -6 c-10 -9 -68
-16 -68 -7 0 4 17 9 37 11 20 1 34 0 31 -4z m-4 -36 c-3 -4 -12 -8 -20 -8 -8
0 -14 -8 -14 -17 0 -15 -2 -14 -15 3 -21 28 -19 31 20 31 19 0 32 -4 29 -9z
m-94 -48 c0 -5 -4 -10 -10 -10 -5 0 -10 5 -10 10 0 6 5 10 10 10 6 0 10 -4 10
-10z m160 -21 c0 -5 -4 -9 -8 -9 -5 0 -9 7 -9 15 0 8 4 12 9 9 4 -3 8 -9 8
-15z m375 11 c3 -5 1 -10 -4 -10 -6 0 -11 5 -11 10 0 6 2 10 4 10 3 0 8 -4 11
-10z m-134 -33 c-13 -12 -21 -16 -17 -9 4 7 2 12 -6 12 -7 1 -2 7 12 15 34 18
39 9 11 -18z m-341 11 c0 -4 -2 -8 -4 -8 -2 0 -11 -2 -19 -5 -8 -4 -14 0 -14
9 0 8 9 14 19 13 10 -1 18 -5 18 -9z m397 -10 c-3 -8 -6 -5 -6 6 -1 11 2 17 5
13 3 -3 4 -12 1 -19z m-472 3 c-3 -5 -1 -12 5 -16 5 -3 10 -15 10 -26 0 -11 5
-17 10 -14 18 11 11 -17 -7 -31 -17 -13 -17 -13 0 -14 21 0 23 -20 1 -20 -8 0
-12 -5 -9 -11 4 -6 14 -8 24 -5 14 5 13 4 -1 -8 -22 -16 -24 -30 -3 -23 8 4
17 1 21 -6 4 -7 3 -9 -1 -4 -5 4 -18 1 -31 -7 -21 -14 -22 -14 -19 18 1 18 -2
43 -7 55 -6 19 -11 21 -22 12 -17 -15 -28 -1 -15 19 5 9 9 10 9 3 0 -6 8 -10
18 -9 20 3 29 51 13 70 -6 7 -8 16 -4 19 9 10 15 8 8 -2z m372 -48 c-3 -10 -5
-4 -5 12 0 17 2 24 5 18 2 -7 2 -21 0 -30z m-296 18 c5 9 9 10 9 2 0 -18 -19
-26 -34 -14 -7 6 -17 7 -21 3 -5 -4 -5 -1 -1 6 6 10 11 10 23 1 12 -10 16 -10
24 2z m-141 -11 c0 -5 -5 -10 -11 -10 -5 0 -7 5 -4 10 3 6 8 10 11 10 2 0 4
-4 4 -10z m170 -30 c0 -5 -2 -10 -4 -10 -3 0 -8 5 -11 10 -3 6 -1 10 4 10 6 0
11 -4 11 -10z m-30 -18 c0 -5 -7 -9 -15 -9 -8 0 -15 4 -15 9 0 4 7 8 15 8 8 0
15 -4 15 -8z m60 0 c0 -13 -12 -22 -22 -16 -10 6 -1 24 13 24 5 0 9 -4 9 -8z
m-190 -36 c0 -2 -6 -9 -13 -15 -10 -8 -14 -7 -14 4 0 8 6 15 14 15 7 0 13 -2
13 -4z m190 0 c0 -2 -8 -10 -17 -17 -16 -13 -17 -12 -4 4 13 16 21 21 21 13z
m-250 -15 c0 -6 -5 -13 -12 -17 -6 -4 -8 -3 -4 4 3 6 -2 13 -11 15 -14 4 -13
5 5 6 12 0 22 -3 22 -8z m210 -11 c0 -5 -4 -10 -10 -10 -5 0 -10 5 -10 10 0 6
5 10 10 10 6 0 10 -4 10 -10z m-135 -10 c3 -5 1 -10 -4 -10 -6 0 -11 5 -11 10
0 6 2 10 4 10 3 0 8 -4 11 -10z m134 -13 c-2 -1 -13 -9 -24 -17 -19 -14 -19
-14 -6 3 7 9 18 17 24 17 6 0 8 -1 6 -3z m1 -32 c0 -8 -4 -15 -10 -15 -5 0 -7
7 -4 15 4 8 8 15 10 15 2 0 4 -7 4 -15z m-74 -30 c-14 -15 -16 -15 -16 -1 0 9
5 16 11 16 5 0 7 6 3 13 -5 9 -4 9 6 0 10 -9 10 -15 -4 -28z m114 -15 c0 -5
-9 -8 -19 -7 -10 0 -17 7 -14 13 5 13 33 8 33 -6z m127 -47 c2 -5 -7 -15 -19
-21 l-23 -12 24 6 c16 4 21 3 17 -5 -4 -6 -18 -11 -32 -11 -20 0 -24 5 -24 28
0 24 4 27 27 26 15 0 28 -5 30 -11z m119 -27 c2 -13 1 -13 -3 -1 -2 8 -9 13
-14 10 -5 -4 -9 -1 -9 5 0 18 25 5 26 -14z m137 -4253 c4 -3 2 -12 -4 -20 -9
-9 -8 -13 0 -13 6 0 11 5 11 10 0 18 17 10 34 -15 15 -23 15 -25 1 -25 -9 0
-14 4 -10 9 3 6 -4 9 -15 8 -20 -1 -20 -2 -4 -14 10 -7 22 -13 27 -13 4 0 5
-5 2 -10 -4 -6 -11 -8 -16 -5 -5 4 -9 0 -9 -9 0 -8 6 -17 13 -19 7 -4 6 -6 -5
-6 -9 -1 -19 5 -21 12 -5 10 -7 -4 -7 -40 0 -5 5 -9 10 -9 6 -1 15 -2 21 -3 5
0 7 -6 3 -12 -4 -8 -9 -7 -15 2 -7 11 -9 10 -9 -5 0 -15 -3 -16 -15 -6 -8 7
-13 16 -10 20 3 4 -2 13 -11 20 -12 10 -12 15 -2 21 7 4 9 11 5 15 -4 4 -13
-1 -21 -11 -8 -11 -18 -15 -26 -10 -9 6 -12 4 -8 -7 4 -8 0 -15 -8 -15 -7 0
-11 4 -8 8 2 4 0 10 -5 13 -5 4 -8 14 -6 24 2 9 4 23 4 31 1 11 4 11 16 1 8
-7 16 -9 16 -4 1 5 2 14 4 19 1 6 3 18 3 27 1 11 8 15 17 12 8 -3 20 -2 26 2
9 5 7 10 -7 15 -18 7 -18 8 2 8 11 1 24 -2 27 -6z m60 0 c-7 -2 -21 -2 -30 0
-10 3 -4 5 12 5 17 0 24 -2 18 -5z m-151 -35 c-7 -7 -12 -8 -12 -2 0 14 12 26
19 19 2 -3 -1 -11 -7 -17z m-232 -18 c0 -5 -5 -10 -11 -10 -5 0 -7 5 -4 10 3
6 8 10 11 10 2 0 4 -4 4 -10z m412 -59 c-9 -16 -21 -27 -26 -23 -6 3 -5 7 2
10 7 2 12 12 12 23 0 10 7 19 15 19 12 0 11 -5 -3 -29z m-602 5 c0 -3 -4 -8
-10 -11 -5 -3 -10 -1 -10 4 0 6 5 11 10 11 6 0 10 -2 10 -4z m387 -47 c2 -26
14 -39 20 -21 3 6 9 12 14 12 4 0 5 -8 2 -17 -6 -16 -5 -17 12 -3 17 14 18 14
7 -6 -6 -12 -9 -23 -7 -26 3 -3 -2 -5 -10 -5 -8 0 -15 5 -15 10 0 5 -6 15 -14
21 -17 13 -31 56 -19 56 5 0 9 -10 10 -21z m-407 -4 c11 -13 10 -14 -4 -9 -9
3 -16 10 -16 15 0 13 6 11 20 -6z m253 -14 c13 -26 13 -28 -4 -24 -12 4 -18
13 -17 29 3 30 4 30 21 -5z m394 5 c-12 -9 -14 -16 -7 -21 11 -7 4 -25 -10
-25 -5 0 -7 6 -4 14 3 8 -1 18 -8 22 -9 6 -6 10 12 15 36 10 37 10 17 -5z
m-137 -27 c0 -6 -4 -7 -10 -4 -5 3 -10 11 -10 16 0 6 5 7 10 4 6 -3 10 -11 10
-16z m88 -8 c-7 -11 -17 -19 -22 -18 -6 1 -10 -4 -8 -10 3 -19 -6 -16 -17 5
-8 14 -5 18 11 19 12 1 26 7 31 12 17 17 18 13 5 -8z m-83 -31 c3 -5 1 -10 -4
-10 -6 0 -11 5 -11 10 0 6 2 10 4 10 3 0 8 -4 11 -10z m91 -17 c-4 -4 -12 -1
-19 7 -9 10 -9 11 1 6 7 -4 12 -2 13 6 0 11 2 11 6 0 3 -7 2 -16 -1 -19z
m-156 -20 c0 -21 -3 -24 -9 -14 -5 8 -7 20 -4 28 8 21 13 15 13 -14z m70 2 c0
-6 10 -17 23 -24 12 -6 14 -9 5 -7 -16 5 -22 -3 -20 -24 0 -4 -10 -6 -24 -6
-13 0 -24 5 -24 11 0 5 -5 3 -10 -5 -9 -13 -10 -13 -11 0 0 8 -7 -1 -14 -20
-13 -33 -14 -34 -14 -8 -1 14 -4 34 -8 44 -4 12 -3 15 5 10 19 -11 52 3 45 20
-3 7 0 14 7 14 6 0 9 4 6 9 -4 5 3 7 14 4 11 -3 20 -11 20 -18z m130 -1 c0
-14 -4 -23 -9 -19 -6 3 -15 -4 -22 -16 -9 -17 -8 -23 2 -30 12 -7 12 -9 0 -9
-11 0 -11 -3 0 -17 8 -9 9 -14 3 -10 -7 4 -14 0 -17 -8 -4 -9 -1 -12 8 -9 9 4
13 -1 12 -15 -1 -12 -7 -21 -15 -21 -7 0 -10 4 -7 10 4 6 -1 7 -11 3 -14 -5
-16 -3 -11 12 5 11 1 22 -10 31 -17 13 -17 14 0 8 13 -5 16 -2 11 9 -3 8 0 18
6 22 9 6 9 10 -1 16 -10 6 -11 9 -1 9 6 0 12 7 12 15 0 8 7 15 15 15 9 0 18 7
21 15 9 22 14 18 14 -11z m-280 12 c0 -2 -7 -7 -16 -10 -8 -3 -12 -2 -9 4 6
10 25 14 25 6z m-180 -16 c0 -5 -4 -10 -10 -10 -5 0 -10 5 -10 10 0 6 5 10 10
10 6 0 10 -4 10 -10z m220 -25 c0 -8 -4 -15 -10 -15 -5 0 -10 7 -10 15 0 8 5
15 10 15 6 0 10 -7 10 -15z m-306 -31 c5 -15 2 -24 -10 -28 -22 -8 -28 -1 -19
21 5 10 7 25 6 33 -4 21 15 0 23 -26z m142 27 c-8 -12 -46 -21 -46 -11 0 5 10
11 23 13 12 2 23 5 25 6 2 0 1 -3 -2 -8z m90 -18 c-10 -11 -37 -12 -30 -2 3 5
12 9 21 9 9 0 13 -3 9 -7z m214 -44 c0 -24 -4 -38 -10 -34 -5 3 -10 1 -10 -4
0 -6 5 -11 10 -11 6 0 10 -9 10 -20 0 -11 4 -20 9 -20 13 0 23 17 14 23 -5 2
-1 2 7 -1 8 -2 21 -5 29 -6 17 -3 34 -43 21 -51 -5 -3 -21 -3 -35 1 -20 5 -23
9 -14 20 13 15 9 17 -15 8 -9 -3 -16 -12 -16 -20 0 -8 -6 -11 -15 -8 -11 5
-14 2 -9 -12 4 -11 11 -24 16 -31 6 -8 2 -15 -12 -23 -21 -11 -22 -37 -2 -33
6 2 9 -4 6 -12 -8 -19 3 -19 22 0 9 8 11 15 5 15 -20 0 -11 19 9 19 11 1 30 1
41 2 30 0 42 -14 36 -42 l-4 -24 -8 23 c-8 25 -25 30 -25 6 0 -9 -5 -12 -12
-8 -6 4 -8 3 -4 -4 3 -6 -1 -18 -10 -27 -14 -13 -19 -14 -25 -3 -5 7 -9 9 -9
3 0 -5 -4 -4 -8 3 -7 10 -15 10 -38 2 -16 -6 -32 -17 -37 -23 -6 -8 -7 -4 -4
11 3 13 0 22 -6 22 -8 0 -7 4 2 9 11 7 9 10 -8 16 -24 7 -30 48 -17 119 3 15
1 38 -4 51 -7 18 -4 27 18 46 15 13 31 22 36 21 4 -1 14 2 21 8 10 8 15 7 18
-2 4 -8 8 -5 12 10 11 33 15 27 15 -19z m-366 13 c3 -5 -1 -9 -9 -9 -8 0 -12
4 -9 9 3 4 7 8 9 8 2 0 6 -4 9 -8z m-724 -22 c0 -5 -2 -10 -4 -10 -3 0 -8 5
-11 10 -3 6 -1 10 4 10 6 0 11 -4 11 -10z m845 -31 c-4 -5 -1 -9 5 -9 6 0 8
-5 5 -11 -9 -13 -15 -7 -20 20 -2 12 0 19 6 16 5 -4 7 -11 4 -16z m-177 -10
c3 -11 1 -11 -7 1 -7 10 -11 11 -11 3 0 -7 -7 -13 -15 -13 -15 0 -20 12 -9 22
10 10 38 2 42 -13z m92 1 c0 -5 -5 -10 -11 -10 -5 0 -7 5 -4 10 3 6 8 10 11
10 2 0 4 -4 4 -10z m-114 -48 c1 -7 0 -8 -3 -2 -2 5 -9 8 -14 4 -5 -3 -9 0 -9
6 0 15 23 7 26 -8z m692 -35 c8 -9 4 -15 -14 -24 -22 -10 -24 -9 -24 13 0 26
21 32 38 11z m-390 -22 c-3 -3 -9 2 -12 12 -6 14 -5 15 5 6 7 -7 10 -15 7 -18z
m162 -2 c0 -15 2 -16 10 -3 8 13 10 13 10 1 0 -11 4 -9 14 5 8 10 18 15 22 11
12 -12 -30 -48 -60 -51 -20 -3 -24 0 -16 9 8 9 8 15 0 20 -15 9 -12 25 5 25 8
0 15 -8 15 -17z m224 -19 c3 -8 2 -12 -4 -9 -6 3 -10 10 -10 16 0 14 7 11 14
-7z m-624 -14 c0 -5 -2 -10 -4 -10 -3 0 -8 5 -11 10 -3 6 -1 10 4 10 6 0 11
-4 11 -10z m155 -37 c-5 -21 -4 -23 14 -13 25 13 38 -5 14 -19 -10 -6 -13 -11
-8 -11 6 0 3 -5 -5 -10 -11 -7 -6 -8 18 -4 19 4 32 2 32 -4 0 -13 -49 -22 -56
-10 -3 5 -12 7 -20 4 -8 -3 -14 1 -14 9 0 9 6 12 15 9 18 -7 19 -1 5 26 -30
60 -30 58 -9 53 16 -5 19 -11 14 -30z m-100 17 c3 -5 -1 -10 -9 -10 -9 0 -16
5 -16 10 0 6 4 10 9 10 6 0 13 -4 16 -10z m566 -9 c-6 -10 -8 -20 -6 -23 3 -3
-2 -5 -10 -5 -11 0 -12 4 -4 14 6 7 8 13 3 13 -5 0 -2 5 6 10 21 14 22 13 11
-9z m-384 -63 c-3 -7 -5 -2 -5 12 0 14 2 19 5 13 2 -7 2 -19 0 -25z m41 3 c3
-20 2 -21 -10 -10 -17 15 -20 41 -4 36 6 -2 13 -14 14 -26z m-422 -18 c-7 -7
-26 7 -26 19 0 6 6 6 15 -2 9 -7 13 -15 11 -17z m358 -51 c2 -4 -4 -9 -15 -9
-11 -1 -17 2 -14 8 7 11 22 12 29 1z m66 -8 c0 -8 -5 -12 -10 -9 -6 4 -8 11
-5 16 9 14 15 11 15 -7z m-257 -89 c-3 -9 -8 -14 -10 -11 -3 3 -2 9 2 15 9 16
15 13 8 -4z m-263 -5 c0 -5 -2 -10 -4 -10 -3 0 -8 5 -11 10 -3 6 -1 10 4 10 6
0 11 -4 11 -10z m323 -23 c-3 -4 -11 -6 -18 -3 -7 2 -19 -1 -26 -7 -11 -10
-11 -9 0 5 12 17 54 22 44 5z m54 -29 c-3 -8 -6 -5 -6 6 -1 11 2 17 5 13 3 -3
4 -12 1 -19z m-11 -30 c-11 -7 -26 9 -26 30 0 8 6 6 18 -5 11 -12 14 -21 8
-25z m314 8 c-5 -13 -6 -27 -3 -30 4 -3 1 -6 -5 -6 -13 0 -17 42 -5 53 14 15
22 6 13 -17z m40 -4 c0 -5 -7 -9 -15 -9 -8 0 -12 4 -9 9 3 4 9 8 15 8 5 0 9
-4 9 -8z m-440 -18 c0 -8 -4 -12 -10 -9 -5 3 -10 10 -10 16 0 5 5 9 10 9 6 0
10 -7 10 -16z m156 -3 c0 -13 -4 -17 -11 -11 -6 5 -22 6 -35 3 -16 -4 -21 -3
-16 6 4 6 11 9 16 6 5 -3 11 -1 15 5 11 17 31 11 31 -9z m290 -31 c0 -12 -4
-16 -9 -11 -5 5 -6 14 -3 20 10 15 12 14 12 -9z m-336 -11 c0 -5 -4 -9 -8 -9
-5 0 -9 7 -9 15 0 8 4 12 9 9 4 -3 8 -9 8 -15z m21 -2 c-10 -9 -11 -8 -5 6 3
10 9 15 12 12 3 -3 0 -11 -7 -18z m-116 -7 c-15 -24 -43 -30 -56 -12 -12 15
-12 15 1 5 12 -9 19 -8 34 3 23 17 30 18 21 4z m141 -14 c0 -14 -5 -21 -9 -17
-4 4 -5 15 -1 24 9 24 12 21 10 -7z m-101 -6 c3 -5 1 -10 -4 -10 -6 0 -11 5
-11 10 0 6 2 10 4 10 3 0 8 -4 11 -10z m-277 -29 c11 -7 10 -9 -3 -15 -9 -3
-13 -11 -9 -17 4 -8 0 -8 -15 0 -11 7 -21 14 -21 17 0 3 5 2 10 -1 6 -3 10 1
10 9 0 18 8 20 28 7z m345 -38 c-7 -3 -13 -9 -13 -14 0 -6 4 -8 8 -5 18 11 7
-25 -12 -41 -21 -18 -21 -18 -3 4 21 24 6 43 -18 23 -11 -10 -15 -10 -15 -1 0
7 -5 9 -10 6 -6 -4 -6 3 1 18 9 19 16 22 42 19 18 -3 26 -7 20 -9z m317 -33
c0 -5 -7 -7 -15 -4 -9 4 -15 0 -15 -9 0 -10 7 -13 20 -10 11 3 20 0 20 -6 0
-6 -7 -11 -15 -11 -8 0 -15 -6 -15 -12 0 -23 -20 16 -20 40 0 15 6 22 20 22
11 0 20 -4 20 -10z m-643 -20 c-1 -12 -5 -16 -10 -11 -5 5 -6 14 -3 20 11 16
15 13 13 -9z m553 1 c0 -6 -4 -12 -8 -15 -5 -3 -9 1 -9 9 0 8 4 15 9 15 4 0 8
-4 8 -9z m38 -32 c-1 -16 -5 -29 -10 -29 -4 0 -8 -5 -8 -11 0 -5 5 -7 10 -4
12 7 13 -15 2 -30 -18 -27 -44 -7 -47 35 -2 23 1 30 14 28 12 -2 15 4 13 24
-2 21 1 26 12 22 9 -3 14 -18 14 -35z m-338 17 c0 -3 -4 -8 -10 -11 -5 -3 -10
-1 -10 4 0 6 5 11 10 11 6 0 10 -2 10 -4z m28 -20 c-1 -14 -5 -23 -9 -20 -7 4
0 44 7 44 2 0 3 -11 2 -24z m179 -10 c-3 -7 3 -20 14 -29 18 -16 25 -10 19 18
-1 6 2 7 6 3 4 -5 8 -21 8 -37 1 -29 1 -30 -19 -11 -22 20 -37 16 -48 -13 -4
-11 -12 -15 -18 -11 -8 4 -9 3 -5 -4 5 -8 13 -9 25 -2 14 7 25 4 47 -15 25
-22 26 -24 6 -18 -12 3 -25 9 -28 14 -10 16 -23 9 -17 -8 6 -15 4 -16 -9 -6
-8 7 -19 9 -23 5 -5 -4 -5 -2 -1 5 3 6 1 15 -5 18 -7 5 -3 14 11 27 12 11 19
27 16 35 -3 8 0 20 7 28 15 18 21 19 14 1z m203 4 c0 -5 -5 -10 -11 -10 -5 0
-7 5 -4 10 3 6 8 10 11 10 2 0 4 -4 4 -10z m-683 -15 c0 -8 -4 -12 -9 -9 -5 3
-6 10 -3 15 9 13 12 11 12 -6z m348 5 c-3 -5 -12 -10 -18 -10 -7 0 -6 4 3 10
19 12 23 12 15 0z m-350 -50 c-3 -5 2 -15 10 -24 14 -13 13 -15 -3 -13 -12 1
-18 8 -17 21 1 12 -3 28 -9 36 -10 13 -9 13 6 1 10 -7 16 -17 13 -21z m323 9
c3 -8 1 -11 -3 -7 -4 4 -15 -1 -24 -10 -9 -10 -13 -13 -9 -8 4 5 2 16 -5 25
-9 12 -9 13 1 7 7 -4 12 -2 12 4 0 16 23 7 28 -11z m-61 -21 c-3 -8 -6 -5 -6
6 -1 11 2 17 5 13 3 -3 4 -12 1 -19z m-463 -16 c2 -4 -5 -9 -17 -9 -17 -2 -19
0 -7 7 18 12 18 12 24 2z m252 -44 c4 -7 3 -8 -4 -4 -7 4 -12 2 -12 -5 0 -7
-3 -10 -6 -6 -6 5 3 27 11 27 2 0 7 -5 11 -12z m464 -8 c0 -5 -5 -10 -11 -10
-5 0 -7 5 -4 10 3 6 8 10 11 10 2 0 4 -4 4 -10z m-168 -36 c-9 -16 -10 -14 -9
8 1 15 6 23 11 18 4 -4 4 -16 -2 -26z m52 28 c2 -4 -4 -9 -15 -9 -11 -1 -17 2
-14 8 7 11 22 12 29 1z m-418 -16 c8 -8 11 -17 6 -20 -4 -2 -13 4 -20 15 -14
22 -7 25 14 5z m469 5 c3 -5 2 -12 -3 -15 -5 -3 -9 1 -9 9 0 17 3 19 12 6z
m-116 -54 c0 -9 -2 -8 -6 1 -2 6 -10 9 -15 6 -7 -4 -8 -2 -4 5 9 13 26 5 25
-12z m-346 -7 c-3 -11 -9 -20 -13 -20 -5 0 -6 9 -3 20 3 11 9 20 13 20 5 0 6
-9 3 -20z m482 10 c-9 -14 8 -13 23 2 9 9 12 9 12 -4 0 -14 -9 -16 -55 -9 -5
1 -3 6 5 11 19 12 23 12 15 0z m-182 -17 c-3 -7 -6 -13 -8 -13 -2 0 -5 6 -8
13 -3 8 1 14 8 14 7 0 11 -6 8 -14z m137 -3 c0 -5 -2 -10 -4 -10 -3 0 -8 5
-11 10 -3 6 -1 10 4 10 6 0 11 -4 11 -10z m-436 -36 c3 -8 2 -12 -4 -9 -6 3
-10 10 -10 16 0 14 7 11 14 -7z m518 2 c7 4 8 2 4 -4 -4 -6 -13 -9 -21 -6 -8
4 -12 11 -8 17 5 8 8 7 11 -1 2 -7 9 -9 14 -6z m-46 -96 c8 0 14 5 14 10 0 6
8 2 18 -7 11 -10 17 -22 14 -26 -2 -5 -9 -4 -15 2 -19 19 -34 12 -32 -14 2
-14 -1 -23 -6 -19 -5 3 -9 -4 -9 -16 0 -12 5 -18 10 -15 6 3 10 1 10 -5 0 -7
-6 -10 -14 -7 -23 9 -9 -51 19 -85 18 -22 23 -34 16 -41 -13 -13 -14 -30 -2
-22 5 3 12 2 15 -3 2 -4 -6 -8 -18 -8 -14 0 -23 6 -22 14 1 8 -5 17 -13 20 -8
3 -11 0 -7 -7 4 -6 3 -11 -1 -11 -5 0 -8 53 -7 118 2 133 3 153 11 135 2 -7
11 -13 19 -13z m-459 -12 c-3 -8 -6 -5 -6 6 -1 11 2 17 5 13 3 -3 4 -12 1 -19z
m643 -22 c0 -8 -5 -18 -12 -22 -7 -5 -8 -3 -3 6 6 10 4 12 -8 7 -9 -3 -19 -1
-23 5 -4 6 -3 8 4 4 6 -3 13 -2 17 4 9 15 25 12 25 -4z m-140 -41 c0 -8 6 -12
14 -9 8 3 17 1 21 -5 3 -6 1 -11 -5 -11 -6 0 -9 -4 -5 -9 3 -5 1 -13 -5 -16
-6 -4 -9 -1 -8 7 2 7 -4 12 -13 10 -9 -1 -19 4 -23 13 -3 8 -1 15 5 15 6 0 8
7 5 16 -3 8 -2 12 4 9 6 -3 10 -13 10 -20z m-200 11 c0 -12 -33 -35 -42 -30
-5 3 1 12 14 19 29 16 28 16 28 11z m40 -38 c0 -6 -6 -5 -15 2 -8 7 -15 14
-15 16 0 2 7 1 15 -2 8 -4 15 -11 15 -16z m330 8 c0 -3 -4 -8 -10 -11 -5 -3
-10 -1 -10 4 0 6 5 11 10 11 6 0 10 -2 10 -4z m-351 -32 c6 4 11 2 11 -4 0
-17 -33 -8 -37 10 -4 12 -3 13 5 1 5 -7 15 -10 21 -7z m285 -5 c-6 -11 -24 -2
-24 11 0 5 7 7 15 4 8 -4 12 -10 9 -15z m-104 -11 c0 -10 -4 -18 -10 -18 -5 0
-9 6 -7 13 1 7 -6 11 -18 9 -14 -2 -16 0 -7 6 21 14 42 10 42 -10z m-200 -22
c0 -2 -7 -9 -15 -16 -13 -11 -14 -10 -9 4 5 14 24 23 24 12z m-226 -31 c-4 -8
-9 -13 -13 -10 -4 2 -5 -9 -3 -26 4 -28 3 -29 -32 -29 -22 0 -35 4 -31 10 3 6
15 10 26 10 13 0 19 7 19 23 0 27 7 37 26 37 8 0 11 -6 8 -15z m-59 -15 c3 -5
2 -10 -4 -10 -5 0 -13 5 -16 10 -3 6 -2 10 4 10 5 0 13 -4 16 -10z m166 -7
c13 -16 12 -17 -3 -4 -17 13 -22 21 -14 21 2 0 10 -8 17 -17z m29 6 c0 -5 4
-7 10 -4 6 3 7 -1 4 -9 -9 -23 13 -19 26 4 6 11 16 20 23 19 9 0 9 -2 0 -6
-15 -6 8 -33 28 -33 16 0 3 -13 -16 -16 -8 -1 -13 2 -10 6 10 16 -13 20 -28 5
-14 -13 -18 -12 -37 15 -12 16 -17 30 -11 30 6 0 11 -5 11 -11z m-134 -76
c-13 -14 -25 9 -13 28 12 20 12 20 15 -1 2 -12 1 -24 -2 -27z m120 20 c-1 -18
-14 -33 -29 -33 -5 0 -5 6 0 13 4 6 8 15 9 20 3 15 4 17 13 17 5 0 8 -8 7 -17z
m82 -3 c15 -1 14 -3 -2 -15 -11 -8 -16 -15 -12 -15 4 0 4 -4 1 -10 -4 -6 -11
-5 -19 3 -12 10 -12 13 0 20 7 4 12 13 10 20 -1 6 -1 9 1 5 3 -5 12 -8 21 -8z
m-423 0 c-3 -5 -12 -10 -18 -10 -7 0 -6 4 3 10 19 12 23 12 15 0z m184 -17 c1
-10 2 -42 2 -71 0 -29 4 -50 10 -47 5 4 9 13 9 21 0 8 5 12 10 9 15 -10 12
-32 -6 -39 -25 -9 -46 12 -34 34 7 13 6 20 -5 24 -9 3 -12 12 -8 22 5 14 3 16
-12 10 -19 -7 -35 8 -35 33 0 11 4 9 15 -5 11 -14 14 -15 9 -2 -4 12 1 18 18
21 13 2 23 5 24 6 0 0 2 -7 3 -16z m-389 -3 c8 -5 12 -11 10 -14 -3 -2 -14 2
-24 10 -22 15 -10 19 14 4z m815 -21 c-4 -5 -2 -9 4 -9 5 0 16 -3 25 -6 9 -3
16 -1 16 6 0 6 -4 9 -9 5 -5 -3 -12 -1 -15 4 -9 14 7 21 23 11 8 -4 11 -15 8
-24 -10 -26 -67 -9 -67 20 0 8 5 12 10 9 6 -4 8 -11 5 -16z m-22 -12 c3 -8 -1
-14 -9 -14 -8 0 -14 6 -14 14 0 7 4 13 9 13 5 0 11 -6 14 -13z m-1377 -46 c-4
-5 -1 -12 4 -14 6 -3 5 -4 -2 -3 -15 3 -23 26 -8 26 6 0 9 -4 6 -9z m711 -16
c0 -8 -6 -15 -14 -15 -14 0 -17 12 -6 23 11 11 20 8 20 -8z m143 -6 c0 -6 -4
-7 -10 -4 -5 3 -10 11 -10 16 0 6 5 7 10 4 6 -3 10 -11 10 -16z m65 0 c-6 -32
-12 -34 -12 -4 0 14 3 25 8 25 4 0 6 -10 4 -21z m-122 -15 c3 -4 1 -16 -5 -27
-8 -16 -7 -23 6 -32 9 -7 16 -15 16 -19 0 -11 -28 -6 -33 7 -3 9 -7 9 -20 -2
-11 -9 -17 -10 -17 -2 0 6 5 11 11 11 5 0 7 5 3 12 -4 6 -3 8 3 5 6 -4 13 -1
16 7 4 10 -1 13 -18 11 -14 -1 -22 2 -19 6 3 5 -3 9 -13 9 -16 0 -18 -6 -15
-35 l4 -36 -66 2 c-57 2 -66 4 -61 18 4 9 8 21 9 28 6 35 22 17 18 -18 -1 -4
11 -10 25 -14 30 -7 46 10 52 54 1 9 21 13 82 19 9 1 19 -1 22 -4z m267 -2 c0
-5 -7 -9 -15 -9 -8 0 -12 4 -9 9 3 4 9 8 15 8 5 0 9 -4 9 -8z m-221 -20 c14
-27 0 -43 -23 -27 -15 12 -16 16 -5 29 18 19 17 19 28 -2z m-172 -8 c-3 -3
-12 -4 -19 -1 -8 3 -5 6 6 6 11 1 17 -2 13 -5z m296 -36 c4 1 7 -2 7 -8 0 -16
-40 -12 -46 5 -4 8 -11 12 -17 8 -6 -3 -7 -1 -3 5 5 9 13 9 29 0 12 -7 25 -11
30 -10z m-86 -4 c-3 -3 -12 -4 -19 -1 -8 3 -5 6 6 6 11 1 17 -2 13 -5z"/>
<path d="M2860 7310 c0 -19 3 -21 12 -12 9 9 9 15 0 24 -9 9 -12 7 -12 -12z"/>
<path d="M2836 7303 c-6 -14 -5 -15 5 -6 7 7 10 15 7 18 -3 3 -9 -2 -12 -12z"/>
<path d="M3120 2196 c0 -8 -6 -16 -14 -19 -15 -6 -15 -51 -1 -65 4 -4 5 0 4 8
-2 8 1 16 6 17 12 2 7 -31 -6 -35 -12 -5 -12 -32 1 -32 5 0 13 8 19 17 5 10
13 15 17 11 12 -13 44 12 44 35 -1 20 -2 20 -11 5 -5 -10 -17 -18 -26 -18 -9
0 -13 3 -10 7 4 3 2 12 -4 19 -8 9 -5 11 10 7 16 -4 21 -1 20 13 0 11 -3 14
-6 6 -2 -6 -9 -10 -13 -7 -5 3 -7 12 -4 19 3 7 -2 16 -10 19 -10 4 -16 1 -16
-7z"/>
<path d="M3153 2060 c-1 -11 2 -20 7 -20 4 0 7 7 6 15 -3 23 -12 26 -13 5z"/>
<path d="M3117 2053 c-4 -3 -7 -16 -7 -27 0 -17 2 -18 10 -6 9 13 14 7 11 -12
0 -4 6 -5 14 -2 19 8 19 23 0 30 -8 4 -12 10 -9 15 6 10 -9 12 -19 2z"/>
<path d="M3074 887 c3 -10 6 -21 6 -23 0 -2 7 -4 16 -4 9 0 12 -5 8 -12 -5 -7
-3 -8 5 -3 10 6 10 10 0 19 -7 6 -19 18 -27 26 -12 13 -13 13 -8 -3z"/>
<path d="M4450 8734 c34 -7 110 -9 110 -2 0 5 -28 7 -62 7 -35 -1 -56 -3 -48
-5z"/>
<path d="M4640 8731 c67 -7 210 -4 219 4 2 3 -61 4 -140 3 -111 -1 -129 -3
-79 -7z"/>
<path d="M4948 8733 c12 -2 30 -2 40 0 9 3 -1 5 -23 4 -22 0 -30 -2 -17 -4z"/>
<path d="M5213 8733 c26 -2 67 -2 90 0 23 2 2 3 -48 3 -49 0 -68 -1 -42 -3z"/>
<path d="M5788 8733 c6 -2 18 -2 25 0 6 3 1 5 -13 5 -14 0 -19 -2 -12 -5z"/>
<path d="M6268 8733 c12 -2 30 -2 40 0 9 3 -1 5 -23 4 -22 0 -30 -2 -17 -4z"/>
<path d="M3386 8691 c-4 -5 3 -7 14 -4 23 6 26 13 6 13 -8 0 -17 -4 -20 -9z"/>
<path d="M3505 8690 c-3 -5 -1 -10 4 -10 6 0 11 5 11 10 0 6 -2 10 -4 10 -3 0
-8 -4 -11 -10z"/>
<path d="M3713 8682 c-9 -16 -7 -20 18 -29 31 -12 53 2 28 18 -8 5 -15 4 -17
-1 -2 -6 -8 -8 -12 -5 -5 3 -7 12 -3 20 7 21 0 19 -14 -3z"/>
<path d="M3133 8673 c-7 -3 -13 -12 -13 -20 0 -13 2 -13 17 -2 10 8 14 9 10 2
-4 -6 -3 -14 3 -18 5 -3 10 3 10 14 0 22 -9 30 -27 24z"/>
<path d="M3453 8668 c-10 -12 -14 -53 -5 -44 2 2 4 8 4 13 -1 4 7 16 15 26 9
9 11 17 6 17 -6 0 -15 -6 -20 -12z"/>
<path d="M3480 8646 c0 -2 7 -9 15 -16 9 -7 15 -8 15 -2 0 5 -7 12 -15 16 -8
3 -15 4 -15 2z"/>
<path d="M3796 8635 c-3 -8 -1 -15 4 -15 6 0 10 7 10 15 0 8 -2 15 -4 15 -2 0
-6 -7 -10 -15z"/>
<path d="M3459 8613 c-1 -5 0 -19 1 -32 1 -13 -2 -21 -7 -18 -12 7 -15 -41 -4
-61 8 -15 42 -27 39 -14 -1 4 2 15 7 26 5 11 3 21 -5 26 -9 6 -9 10 3 21 7 7
12 21 9 31 -5 19 -22 25 -22 7 0 -5 -5 -7 -10 -4 -6 4 -8 11 -5 16 4 5 4 9 1
9 -3 0 -6 -3 -7 -7z"/>
<path d="M3545 8610 c3 -5 0 -7 -8 -4 -8 3 -18 1 -22 -5 -3 -6 5 -15 19 -21
26 -9 37 -32 14 -27 -7 1 -23 -19 -36 -45 -13 -27 -29 -48 -36 -48 -7 0 -12
-13 -12 -29 0 -17 3 -28 7 -25 5 2 6 11 3 19 -4 10 0 12 15 8 13 -3 21 -1 21
6 0 7 -4 9 -10 6 -5 -3 -10 -1 -10 4 0 6 5 11 10 11 6 0 10 9 10 21 0 15 4 19
16 15 10 -4 14 -1 12 6 -6 16 15 38 35 38 8 0 17 9 20 20 3 11 1 20 -4 20 -5
0 -9 -8 -9 -17 0 -15 -2 -16 -10 -3 -6 10 -4 20 7 33 16 17 16 17 0 11 -10 -3
-17 -1 -17 5 0 6 -5 11 -11 11 -5 0 -7 -4 -4 -10z"/>
<path d="M3800 8600 c0 -5 5 -10 11 -10 5 0 7 5 4 10 -3 6 -8 10 -11 10 -2 0
-4 -4 -4 -10z"/>
<path d="M3265 8529 c-9 -14 -2 -20 14 -10 8 6 9 11 3 15 -6 3 -14 1 -17 -5z"/>
<path d="M3540 8485 c-10 -12 -10 -15 3 -15 19 0 31 16 18 24 -5 3 -14 -1 -21
-9z"/>
<path d="M3537 8453 c-4 -3 -7 -13 -7 -21 0 -18 13 -7 16 13 2 17 1 18 -9 8z"/>
<path d="M3516 8393 c-4 -11 -1 -11 14 -3 24 13 25 17 5 17 -8 0 -16 -6 -19
-14z"/>
<path d="M3424 8318 c-4 -6 -2 -8 4 -4 5 3 12 1 14 -5 2 -7 8 -7 15 3 10 11 8
14 -7 15 -11 1 -23 -3 -26 -9z"/>
<path d="M3423 8286 c-3 -5 -1 -6 5 -2 7 4 12 1 12 -9 0 -15 2 -15 15 -1 8 8
15 17 15 20 0 9 -41 2 -47 -8z"/>
<path d="M3482 8280 c0 -14 2 -19 5 -12 2 6 2 18 0 25 -3 6 -5 1 -5 -13z"/>
<path d="M3459 8242 c-1 -4 -1 -11 0 -16 1 -5 -4 -13 -11 -17 -9 -6 -10 -9 -1
-9 7 0 17 8 22 18 12 19 13 18 15 -20 2 -22 -1 -25 -11 -16 -10 8 -17 8 -26
-1 -9 -10 -8 -11 7 -5 13 5 17 4 13 -3 -4 -7 0 -10 10 -8 10 2 20 4 24 4 3 1
5 17 5 36 0 19 -2 35 -5 36 -4 0 -14 2 -23 4 -10 2 -19 0 -19 -3z"/>
<path d="M3386 8222 c-3 -5 1 -9 9 -9 8 0 12 4 9 9 -3 4 -7 8 -9 8 -2 0 -6 -4
-9 -8z"/>
<path d="M3369 8183 c-13 -17 -12 -17 4 -4 15 12 20 12 27 1 4 -7 6 -20 3 -29
-4 -13 -3 -14 5 -2 7 10 7 21 1 33 -12 23 -23 23 -40 1z"/>
<path d="M3437 8147 c-10 -26 -9 -27 9 -27 13 0 14 -3 4 -15 -6 -8 -9 -19 -5
-26 4 -6 2 -15 -4 -19 -9 -5 -8 -11 4 -24 9 -9 11 -16 5 -16 -6 0 -10 -10 -8
-22 2 -13 -2 -22 -8 -21 -6 1 -11 -4 -11 -12 0 -8 4 -12 8 -9 4 2 10 -2 12 -8
3 -8 6 -6 6 5 1 9 6 17 11 17 7 0 7 6 0 19 -7 14 -7 20 2 23 7 3 8 9 3 18 -21
34 -6 100 23 100 7 0 10 5 7 10 -4 7 -12 7 -25 0 -15 -8 -19 -6 -22 8 -3 16
-4 16 -11 -1z"/>
<path d="M3505 8150 c5 -8 1 -18 -10 -26 -16 -12 -16 -13 2 -11 21 1 29 32 11
43 -7 5 -8 2 -3 -6z"/>
<path d="M3753 8142 c-8 -14 -8 -19 1 -19 7 0 13 9 13 19 1 10 1 18 0 18 -1 0
-7 -8 -14 -18z"/>
<path d="M3573 8125 c0 -8 4 -12 9 -9 5 3 6 10 3 15 -9 13 -12 11 -12 -6z"/>
<path d="M3336 8122 c-2 -4 -1 -14 5 -22 7 -13 9 -12 9 2 0 9 6 19 13 21 7 3
6 6 -5 6 -9 1 -19 -3 -22 -7z"/>
<path d="M3390 8108 c0 -4 4 -8 9 -8 6 0 12 4 15 8 3 5 -1 9 -9 9 -8 0 -15 -4
-15 -9z"/>
<path d="M3485 8040 c3 -5 8 -10 11 -10 2 0 4 5 4 10 0 6 -5 10 -11 10 -5 0
-7 -4 -4 -10z"/>
<path d="M3520 8019 c0 -19 5 -29 15 -29 8 0 15 5 15 11 0 5 -4 7 -10 4 -5 -3
-10 -1 -10 4 0 6 4 11 9 11 18 0 18 26 0 27 -15 1 -19 -5 -19 -28z"/>
<path d="M3481 7983 c-1 -34 13 -52 23 -28 3 8 0 15 -6 15 -6 0 -5 6 3 17 8 9
9 14 2 10 -6 -4 -14 -1 -16 5 -3 7 -6 -1 -6 -19z"/>
<path d="M3300 7904 c0 -8 5 -12 10 -9 6 4 8 11 5 16 -9 14 -15 11 -15 -7z"/>
<path d="M3570 7910 c-9 -6 -10 -10 -3 -10 6 0 15 5 18 10 8 12 4 12 -15 0z"/>
<path d="M3228 7893 c7 -3 16 -2 19 1 4 3 -2 6 -13 5 -11 0 -14 -3 -6 -6z"/>
<path d="M3265 7880 c4 -6 11 -8 16 -5 14 9 11 15 -7 15 -8 0 -12 -5 -9 -10z"/>
<path d="M3221 7877 c-1 -5 9 -23 21 -40 20 -27 22 -28 29 -11 8 22 -9 47 -27
40 -7 -3 -15 0 -18 7 -2 7 -5 8 -5 4z m39 -32 c0 -8 -2 -15 -4 -15 -2 0 -6 7
-10 15 -3 8 -1 15 4 15 6 0 10 -7 10 -15z"/>
<path d="M3440 7851 c0 -6 4 -13 10 -16 6 -3 7 1 4 9 -7 18 -14 21 -14 7z"/>
<path d="M3486 7833 c-6 -14 -5 -15 5 -6 7 7 10 15 7 18 -3 3 -9 -2 -12 -12z"/>
<path d="M3175 7800 c-11 -12 -13 -20 -6 -20 6 0 14 7 17 15 4 8 11 12 17 8 6
-3 7 -1 3 5 -9 16 -10 15 -31 -8z"/>
<path d="M3223 7777 c0 -8 6 -14 14 -14 9 0 10 4 2 14 -6 7 -12 13 -14 13 -1
0 -2 -6 -2 -13z"/>
<path d="M3246 7741 c-3 -5 0 -11 7 -14 8 -3 14 1 14 9 0 16 -13 19 -21 5z"/>
<path d="M3220 7696 c0 -19 -7 -25 -32 -30 -30 -6 -31 -8 -14 -18 15 -8 21 -8
24 0 2 6 10 8 18 5 7 -3 11 -10 7 -16 -3 -6 -1 -7 5 -3 8 5 12 -1 12 -16 1
-22 1 -22 12 -4 9 16 6 22 -13 37 -13 10 -18 19 -11 19 14 0 17 50 2 50 -5 0
-10 -11 -10 -24z"/>
<path d="M3260 7688 c1 -30 21 -56 40 -50 8 2 6 -3 -6 -11 -16 -12 -20 -23
-16 -49 4 -28 6 -30 13 -13 7 17 8 15 8 -10 0 -16 0 -61 1 -99 1 -38 -4 -74
-9 -79 -6 -6 -11 -16 -11 -21 0 -6 5 -4 10 4 7 11 10 5 10 -24 0 -22 3 -37 6
-33 3 3 8 76 10 162 2 119 0 154 -9 148 -9 -5 -9 -3 0 8 8 10 10 25 4 45 -7
28 -8 28 -14 5 -6 -24 -27 -21 -27 5 0 8 4 12 10 9 6 -3 7 1 4 9 -9 24 -24 19
-24 -6z"/>
<path d="M3491 7594 c0 -11 3 -14 6 -6 3 7 2 16 -1 19 -3 4 -6 -2 -5 -13z"/>
<path d="M3345 7580 c3 -5 8 -10 11 -10 2 0 4 5 4 10 0 6 -5 10 -11 10 -5 0
-7 -4 -4 -10z"/>
<path d="M3015 7562 c-13 -9 -18 -42 -7 -42 5 0 12 10 15 22 7 26 5 30 -8 20z"/>
<path d="M3040 7552 c0 -16 37 -44 45 -33 3 6 -1 11 -9 11 -9 0 -15 5 -13 11
1 6 -4 14 -10 16 -7 3 -13 0 -13 -5z"/>
<path d="M3184 7552 c5 -8 0 -12 -13 -12 -11 0 -23 -5 -26 -10 -4 -7 3 -10 21
-7 30 4 42 21 23 33 -8 4 -9 3 -5 -4z"/>
<path d="M3017 7509 c-9 -5 -22 -7 -27 -4 -6 3 -10 0 -10 -7 0 -8 9 -14 19
-14 11 0 18 3 15 7 -2 4 3 9 11 13 9 3 15 0 15 -9 0 -9 6 -12 15 -9 12 5 12 8
0 20 -16 16 -15 16 -38 3z"/>
<path d="M3349 7518 c-8 -24 -8 -98 0 -102 7 -4 10 13 10 49 -1 45 -5 67 -10
53z"/>
<path d="M3445 7510 c-4 -6 -10 -8 -14 -6 -4 3 -8 -1 -8 -8 0 -7 6 -13 14 -13
7 0 11 3 8 5 -3 3 0 11 6 19 6 7 9 13 6 13 -3 0 -9 -5 -12 -10z"/>
<path d="M3240 7491 c0 -10 6 -24 14 -30 12 -10 14 -9 11 6 -2 10 -4 24 -4 31
-1 20 -21 14 -21 -7z"/>
<path d="M3462 7480 c0 -14 2 -19 5 -12 2 6 2 18 0 25 -3 6 -5 1 -5 -13z"/>
<path d="M3480 7491 c0 -6 4 -13 10 -16 6 -3 7 1 4 9 -7 18 -14 21 -14 7z"/>
<path d="M3236 7447 c3 -10 9 -15 12 -12 3 3 0 11 -7 18 -10 9 -11 8 -5 -6z"/>
<path d="M3480 7427 c0 -14 5 -29 10 -32 7 -4 8 3 4 22 -9 38 -14 42 -14 10z"/>
<path d="M3536 7427 c3 -10 9 -15 12 -12 3 3 0 11 -7 18 -10 9 -11 8 -5 -6z"/>
<path d="M3580 7426 c0 -2 8 -10 18 -17 15 -13 16 -12 3 4 -13 16 -21 21 -21
13z"/>
<path d="M3240 7406 c0 -17 16 -30 23 -19 3 5 -1 14 -9 21 -12 10 -14 10 -14
-2z"/>
<path d="M3540 7391 c0 -5 6 -14 13 -20 10 -8 14 -7 14 4 0 8 -6 16 -14 19 -7
3 -13 2 -13 -3z"/>
<path d="M3490 7346 c6 -17 6 -26 0 -27 -36 -5 -74 -25 -62 -33 13 -8 16 -27
5 -25 -21 3 -33 -3 -33 -17 0 -8 -4 -13 -9 -10 -4 3 -6 18 -3 32 3 19 1 25 -7
20 -6 -4 -11 -1 -11 6 0 7 -6 4 -13 -7 -12 -20 -19 -80 -8 -69 6 6 7 11 10 39
0 8 5 15 10 15 4 0 7 -11 6 -25 -3 -20 1 -25 20 -25 13 0 30 -7 38 -15 13 -13
16 -12 23 3 12 27 12 53 0 49 -6 -2 -10 -12 -10 -21 1 -9 0 -16 -3 -16 -7 0
-35 30 -29 31 3 1 10 2 15 3 13 2 26 16 26 29 0 7 9 13 20 16 11 2 23 8 26 13
8 12 0 46 -12 54 -5 3 -5 -6 1 -20z"/>
<path d="M3583 7335 c0 -8 4 -12 9 -9 5 3 6 10 3 15 -9 13 -12 11 -12 -6z"/>
<path d="M3545 7310 c-3 -6 1 -7 9 -4 18 7 21 14 7 14 -6 0 -13 -4 -16 -10z"/>
<path d="M3280 7288 c0 -9 6 -19 13 -21 8 -4 9 -8 2 -14 -6 -4 -10 -26 -10
-49 0 -34 3 -40 17 -36 16 4 16 7 3 38 -8 19 -10 34 -6 34 5 0 11 11 13 25 3
14 1 22 -5 18 -5 -3 -13 1 -18 8 -7 11 -9 11 -9 -3z"/>
<path d="M3471 7274 c5 -7 9 -16 8 -20 -3 -20 2 -32 16 -38 13 -4 13 -2 5 14
-7 12 -7 21 0 25 20 12 10 35 -14 33 -18 -2 -22 -6 -15 -14z"/>
<path d="M3517 7267 c-13 -20 -13 -26 -1 -42 13 -17 19 -11 16 16 -1 4 9 5 21
2 21 -4 21 -4 -2 10 -16 10 -20 16 -11 19 10 3 10 7 3 11 -6 4 -18 -3 -26 -16z"/>
<path d="M3517 7185 c-4 -8 -1 -17 5 -21 7 -5 8 -2 3 6 -7 12 7 10 54 -8 9 -3
12 -1 7 6 -4 7 -16 12 -27 12 -11 0 -17 5 -14 10 3 6 0 10 -8 10 -8 0 -17 -7
-20 -15z"/>
<path d="M3356 7167 c5 -13 2 -16 -10 -11 -12 5 -15 2 -10 -10 3 -9 10 -16 14
-16 14 0 21 33 10 44 -8 8 -9 6 -4 -7z"/>
<path d="M3480 7160 c0 -5 5 -10 11 -10 5 0 7 5 4 10 -3 6 -8 10 -11 10 -2 0
-4 -4 -4 -10z"/>
<path d="M3286 7131 c-3 -5 1 -11 9 -14 9 -4 12 -1 8 9 -6 16 -10 17 -17 5z"/>
<path d="M3213 7081 c-9 -14 -8 -18 3 -18 7 0 11 5 7 10 -3 5 3 6 16 2 26 -8
28 1 3 14 -14 7 -21 5 -29 -8z"/>
<path d="M3296 7071 c-3 -5 1 -11 9 -15 8 -3 15 -1 15 4 0 13 -18 22 -24 11z"/>
<path d="M3100 7054 c0 -3 7 -12 15 -20 13 -13 15 -13 15 -1 0 8 -7 17 -15 21
-8 3 -15 3 -15 0z"/>
<path d="M3150 7051 c0 -9 29 -37 31 -30 0 2 2 11 4 19 1 10 -5 16 -16 17 -11
1 -19 -2 -19 -6z"/>
<path d="M2945 7040 c-3 -5 -1 -10 4 -10 6 0 11 5 11 10 0 6 -2 10 -4 10 -3 0
-8 -4 -11 -10z"/>
<path d="M3215 7041 c-3 -5 -1 -12 5 -16 5 -3 10 1 10 9 0 18 -6 21 -15 7z"/>
<path d="M3575 7030 c-3 -5 -1 -10 4 -10 6 0 11 5 11 10 0 6 -2 10 -4 10 -3 0
-8 -4 -11 -10z"/>
<path d="M3185 7010 c-4 -6 -11 -7 -17 -4 -7 4 -8 2 -4 -4 10 -16 23 -15 30 3
6 17 0 20 -9 5z"/>
<path d="M3000 7000 c0 -5 5 -10 10 -10 6 0 10 5 10 10 0 6 -4 10 -10 10 -5 0
-10 -4 -10 -10z"/>
<path d="M2940 6989 c0 -5 5 -7 10 -4 6 3 10 8 10 11 0 2 -4 4 -10 4 -5 0 -10
-5 -10 -11z"/>
<path d="M3088 6993 c7 -3 16 -2 19 1 4 3 -2 6 -13 5 -11 0 -14 -3 -6 -6z"/>
<path d="M3132 6991 c-11 -6 -9 -9 6 -13 15 -4 19 -2 15 8 -6 16 -4 16 -21 5z"/>
<path d="M2980 6982 c0 -4 10 -9 22 -9 18 -2 20 0 8 7 -18 12 -30 13 -30 2z"/>
<path d="M2900 6939 c0 -5 -4 -7 -10 -4 -6 3 -7 -1 -4 -9 9 -22 19 -20 21 4 1
11 0 20 -3 20 -2 0 -4 -5 -4 -11z"/>
<path d="M3180 6890 c0 -5 6 -10 13 -10 9 0 8 -3 -2 -9 -17 -11 -1 -20 21 -12
14 5 13 9 -8 24 -13 10 -24 13 -24 7z"/>
<path d="M3460 6880 c0 -5 5 -10 10 -10 6 0 10 5 10 10 0 6 -4 10 -10 10 -5 0
-10 -4 -10 -10z"/>
<path d="M3560 6880 c0 -5 5 -10 10 -10 6 0 10 5 10 10 0 6 -4 10 -10 10 -5 0
-10 -4 -10 -10z"/>
<path d="M4333 6803 c9 -2 23 -2 30 0 6 3 -1 5 -18 5 -16 0 -22 -2 -12 -5z"/>
<path d="M4632 6373 l-2 -373 -845 0 -844 0 -3 -467 c-2 -258 -2 -471 0 -475
2 -5 315 -8 695 -7 536 1 684 4 655 13 -20 6 -40 14 -43 18 -4 4 -16 2 -26 -5
-25 -18 -190 -13 -230 7 -19 9 -42 13 -61 9 -25 -5 -29 -3 -23 8 7 12 6 12 -7
1 -10 -8 -19 -9 -22 -3 -3 5 0 12 6 14 7 3 -2 6 -21 6 -30 1 -32 -1 -20 -16
10 -11 10 -14 2 -9 -8 4 -13 2 -13 -5 0 -9 -3 -9 -14 0 -10 8 -16 9 -21 1 -3
-5 -1 -10 5 -10 6 0 9 -4 5 -10 -3 -5 -12 -7 -20 -4 -8 4 -13 9 -10 13 2 4 -3
8 -11 8 -8 0 -13 -6 -10 -13 3 -8 -4 -8 -24 3 -26 12 -32 12 -55 -3 -15 -10
-30 -13 -33 -8 -10 13 -32 16 -32 4 0 -5 -5 -10 -11 -10 -5 0 -8 4 -5 9 3 5
-8 6 -27 2 -36 -8 -67 -4 -67 9 0 4 -9 6 -20 3 -14 -4 -20 0 -20 10 0 9 -8 20
-17 25 -22 10 -79 1 -75 -13 1 -6 -11 -11 -28 -12 -36 -2 -38 4 -7 17 20 8 20
9 2 10 -11 1 -37 2 -57 4 -20 2 -42 0 -48 -4 -6 -4 -29 -1 -50 6 -22 8 -46 11
-54 8 -11 -4 -14 1 -12 20 2 15 -1 29 -5 32 -19 11 -8 24 11 14 11 -6 20 -7
19 -3 -3 19 2 33 11 33 6 0 10 -10 10 -22 l1 -23 19 23 c10 13 17 29 14 36 -3
9 6 18 23 25 21 8 22 10 5 7 -15 -3 -22 0 -19 7 2 7 10 12 18 13 29 2 31 4 19
19 -14 17 -5 36 15 29 8 -4 12 -10 9 -15 -3 -5 -1 -9 5 -9 6 0 8 -7 5 -15 -4
-9 0 -15 9 -15 8 0 17 -5 19 -12 3 -9 6 -9 12 0 4 7 2 12 -4 12 -6 0 -8 5 -5
10 3 6 1 10 -6 10 -8 0 -7 5 2 17 8 9 10 14 4 12 -5 -3 -18 2 -27 13 -10 10
-16 18 -13 18 2 0 1 10 -4 23 -14 39 -3 48 34 26 33 -20 33 -20 40 0 4 14 12
18 23 14 9 -3 14 -3 10 2 -4 4 -22 11 -40 15 l-33 7 25 10 c19 8 27 7 33 -3 8
-14 37 -8 37 7 0 4 -7 6 -15 3 -11 -5 -13 -2 -9 10 5 13 9 14 20 5 16 -13 19
-54 4 -44 -5 3 -10 1 -10 -4 0 -6 5 -11 10 -11 6 0 10 -4 10 -10 0 -5 -8 -7
-17 -4 -15 5 -15 4 -3 -4 10 -8 18 -8 27 0 9 7 13 7 13 -1 0 -6 10 -11 23 -11
12 0 17 4 12 8 -13 9 -13 70 0 80 16 11 16 30 0 28 -8 0 -14 4 -14 9 0 6 9 9
19 7 11 -2 20 2 20 7 0 6 -7 11 -15 11 -8 0 -15 5 -15 10 0 6 4 10 9 10 6 0 9
9 8 19 0 11 -4 18 -8 15 -14 -9 -59 49 -59 77 0 16 -4 29 -10 29 -5 0 -10 -7
-10 -15 0 -10 -8 -14 -22 -11 -18 2 -24 12 -29 39 -3 21 -1 41 5 48 8 9 8 10
0 6 -7 -4 -9 3 -6 20 5 26 5 26 13 5 9 -24 29 -30 29 -9 0 8 3 7 10 -3 5 -8 7
-24 5 -35 -4 -16 5 -25 40 -42 25 -12 45 -19 45 -15 0 13 -17 33 -26 31 -21
-4 -35 2 -28 12 3 6 14 9 24 6 11 -3 21 1 24 8 3 9 -2 12 -14 10 -17 -3 -18
-1 -8 15 6 10 20 17 30 15 11 -2 18 2 18 11 0 8 -4 12 -10 9 -5 -3 -10 0 -10
9 0 8 6 16 13 19 6 3 3 5 -8 5 -11 0 -29 3 -41 7 -19 6 -20 3 -16 -25 4 -30 3
-31 -16 -21 -16 9 -24 8 -36 -5 -19 -18 -21 -11 -5 18 8 15 8 19 0 14 -6 -4
-11 0 -11 11 0 14 -2 15 -9 5 -6 -10 -10 -7 -13 13 -4 21 -1 29 17 37 19 8 28
6 46 -11 27 -25 80 -26 72 -1 -4 12 -2 12 9 -2 13 -15 15 -14 26 16 14 39 15
57 2 36 -5 -8 -10 -10 -10 -4 0 6 -7 11 -15 11 -11 0 -12 -4 -3 -14 8 -11 7
-12 -6 -7 -9 3 -16 10 -16 15 0 5 -19 9 -42 8 -43 -1 -43 -1 -10 -9 18 -4 36
-11 40 -15 4 -4 -4 -4 -17 0 -18 6 -22 4 -15 -6 6 -11 4 -12 -7 -4 -8 6 -31
10 -51 10 -21 -1 -38 2 -38 7 0 4 6 8 13 9 6 0 3 4 -8 8 -19 8 -104 5 -132 -4
-7 -3 -13 0 -13 4 0 5 -16 5 -35 1 -23 -5 -33 -4 -29 2 4 6 -2 8 -15 3 -11 -3
-29 -2 -38 4 -10 6 -13 11 -8 11 6 1 24 3 40 5 17 3 371 6 788 7 748 3 758 3
763 23 2 11 3 182 2 380 l-3 360 -3 -372z m-1182 -467 c0 -2 -7 -7 -16 -10 -8
-3 -12 -2 -9 4 6 10 25 14 25 6z m-150 -21 c0 -8 -4 -15 -10 -15 -5 0 -7 7 -4
15 4 8 8 15 10 15 2 0 4 -7 4 -15z m-49 -18 c-10 -9 -11 -8 -5 6 3 10 9 15 12
12 3 -3 0 -11 -7 -18z m199 -37 c0 -5 -4 -10 -10 -10 -5 0 -10 5 -10 10 0 6 5
10 10 10 6 0 10 -4 10 -10z m-183 -50 c-2 -29 -17 -24 -17 6 0 14 4 23 9 19 6
-3 9 -14 8 -25z m36 5 c4 -8 1 -17 -5 -21 -7 -4 -8 -3 -4 4 4 7 2 12 -4 12 -6
0 -8 5 -5 10 8 14 12 13 18 -5z m107 -6 c0 -6 -4 -7 -10 -4 -5 3 -10 11 -10
16 0 6 5 7 10 4 6 -3 10 -11 10 -16z m10 -23 c0 -11 -19 -15 -25 -6 -3 5 1 10
9 10 9 0 16 -2 16 -4z m-105 -15 c3 -5 2 -12 -3 -15 -5 -3 -9 1 -9 9 0 17 3
19 12 6z m-75 -11 c0 -5 -5 -10 -11 -10 -5 0 -7 5 -4 10 3 6 8 10 11 10 2 0 4
-4 4 -10z m32 -42 c-7 -7 -10 -5 -7 8 5 29 6 30 12 16 3 -8 1 -18 -5 -24z m69
-28 c5 0 8 -3 7 -7 0 -5 2 -16 7 -26 4 -10 2 -23 -5 -32 -11 -13 -10 -14 4 -9
9 3 16 2 16 -4 0 -14 -43 -23 -54 -12 -7 7 -6 10 1 10 19 0 22 60 3 70 -10 5
-21 6 -25 2 -5 -4 -5 -1 -1 6 5 7 15 11 23 8 8 -3 19 -6 24 -6z m49 6 c0 -3
-4 -8 -10 -11 -5 -3 -10 -1 -10 4 0 6 5 11 10 11 6 0 10 -2 10 -4z m-266 -21
c-4 -8 -8 -15 -10 -15 -2 0 -4 7 -4 15 0 8 4 15 10 15 5 0 7 -7 4 -15z m51 5
c-9 -14 8 -12 24 3 11 9 12 9 7 0 -13 -23 -15 -53 -4 -53 6 0 9 -3 5 -6 -3 -3
-2 -17 3 -30 6 -14 6 -26 0 -29 -6 -4 -10 -11 -10 -16 0 -6 5 -7 10 -4 6 3 13
-2 16 -12 3 -10 9 -25 14 -35 6 -11 4 -20 -7 -30 -9 -7 -14 -8 -10 -2 4 7 1
14 -7 17 -13 5 -28 -14 -30 -38 -1 -8 -28 -11 -58 -6 -4 0 4 12 18 26 14 14
23 32 20 40 -2 7 0 16 7 18 7 2 0 10 -16 17 -25 12 -26 15 -12 30 8 9 12 20 8
25 -5 4 -2 5 5 1 6 -4 12 -2 12 4 0 6 5 8 11 4 8 -5 8 -9 -1 -14 -7 -5 -9 -13
-5 -21 6 -9 10 -7 16 9 10 27 1 54 -15 45 -6 -3 -8 -3 -4 1 4 5 3 18 -2 31 -5
13 -6 26 -3 29 10 10 15 7 8 -4z m65 -52 c0 -5 -4 -8 -10 -8 -5 0 -10 10 -10
23 0 18 2 19 10 7 5 -8 10 -18 10 -22z m37 2 c1 -16 -1 -17 -12 -7 -11 10 -8
19 10 27 1 0 1 -9 2 -20z m-123 -6 c3 -8 2 -12 -4 -9 -6 3 -10 1 -10 -4 0 -6
-5 -11 -11 -11 -8 0 -9 4 0 13 6 8 8 17 4 20 -3 4 -2 7 4 7 6 0 14 -7 17 -16z
m225 -70 c-5 -7 -21 -14 -35 -17 -19 -3 -24 -1 -20 10 3 8 6 20 6 26 0 6 5 5
13 -4 6 -8 11 -13 10 -11 -1 2 4 10 10 17 15 16 30 -4 16 -21z m-265 -2 c3 -5
-1 -9 -9 -9 -8 0 -12 4 -9 9 3 4 7 8 9 8 2 0 6 -4 9 -8z m103 -111 c10 -15 10
-21 0 -24 -7 -3 -4 -6 6 -6 17 -1 17 -2 3 -17 -9 -8 -14 -20 -11 -25 4 -5 1
-9 -5 -9 -6 0 -8 -5 -4 -12 4 -6 3 -8 -4 -4 -6 3 -22 2 -35 -3 -19 -8 -27 -6
-31 5 -8 21 -36 17 -36 -6 0 -21 -15 -27 -25 -10 -4 6 -1 17 5 25 6 8 9 19 6
24 -4 5 -2 12 4 16 5 3 10 -1 10 -9 0 -10 6 -13 15 -10 8 4 15 14 15 23 0 12
2 13 9 3 7 -11 9 -11 14 2 4 9 12 16 19 16 9 0 9 -3 -2 -10 -12 -7 -10 -9 8
-7 14 1 21 6 17 15 -2 7 0 10 5 7 14 -9 12 9 -2 23 -7 7 -8 12 -2 12 5 0 15
-9 21 -19z m-100 -27 c-3 -3 -12 -4 -19 -1 -8 3 -5 6 6 6 11 1 17 -2 13 -5z
m-60 -76 c-3 -8 -6 -5 -6 6 -1 11 2 17 5 13 3 -3 4 -12 1 -19z m77 -30 c-4
-14 -2 -18 5 -14 6 4 11 1 11 -7 0 -8 -6 -17 -13 -20 -9 -3 -14 7 -16 35 -1
27 2 38 9 33 6 -4 8 -16 4 -27z m53 5 c1 -16 -1 -22 -4 -15 -2 6 -8 10 -13 7
-4 -3 -11 2 -14 11 -3 8 -2 12 3 9 5 -3 12 -1 16 5 9 15 10 13 12 -17z m-177
-107 c0 -2 -7 -7 -16 -10 -8 -3 -12 -2 -9 4 6 10 25 14 25 6z m55 -44 c-3 -3
-11 0 -18 7 -9 10 -8 11 6 5 10 -3 15 -9 12 -12z m350 -32 c3 -5 1 -10 -4 -10
-6 0 -11 5 -11 10 0 6 2 10 4 10 3 0 8 -4 11 -10z m545 -14 c0 -2 -7 -7 -16
-10 -8 -3 -12 -2 -9 4 6 10 25 14 25 6z"/>
<path d="M3155 5530 c-3 -5 -1 -10 4 -10 6 0 11 5 11 10 0 6 -2 10 -4 10 -3 0
-8 -4 -11 -10z"/>
<path d="M3201 5501 c-15 -10 -7 -31 12 -30 8 0 8 2 -1 6 -10 4 -10 8 -1 19
13 16 10 18 -10 5z"/>
<path d="M4925 6275 c0 -258 1 -366 2 -238 2 127 2 339 0 470 -1 131 -2 27 -2
-232z"/>
<path d="M4880 6619 c0 -5 5 -7 10 -4 6 3 10 8 10 11 0 2 -4 4 -10 4 -5 0 -10
-5 -10 -11z"/>
<path d="M4881 6444 c1 -87 5 -141 8 -119 7 47 4 265 -4 273 -3 3 -4 -66 -4
-154z"/>
<path d="M4882 6260 c0 -14 2 -19 5 -12 2 6 2 18 0 25 -3 6 -5 1 -5 -13z"/>
<path d="M4882 6200 c0 -19 2 -27 5 -17 2 9 2 25 0 35 -3 9 -5 1 -5 -18z"/>
<path d="M4880 5923 c0 -86 3 -153 7 -149 10 9 11 306 1 306 -4 0 -8 -70 -8
-157z"/>
<path d="M5798 5988 c5 -19 7 -20 10 -6 3 16 25 18 250 21 l247 2 -257 3 -256
2 6 -22z"/>
<path d="M6338 6003 c17 -2 47 -2 65 0 17 2 3 4 -33 4 -36 0 -50 -2 -32 -4z"/>
<path d="M6448 6003 c6 -2 18 -2 25 0 6 3 1 5 -13 5 -14 0 -19 -2 -12 -5z"/>
<path d="M6508 6003 c12 -2 32 -2 45 0 12 2 2 4 -23 4 -25 0 -35 -2 -22 -4z"/>
<path d="M6703 6003 c9 -2 23 -2 30 0 6 3 -1 5 -18 5 -16 0 -22 -2 -12 -5z"/>
<path d="M3569 5937 c5 -5 17 -5 28 2 16 9 15 10 -9 9 -16 -2 -24 -6 -19 -11z"/>
<path d="M3688 5943 c7 -3 16 -2 19 1 4 3 -2 6 -13 5 -11 0 -14 -3 -6 -6z"/>
<path d="M3347 5893 c-4 -6 2 -18 12 -27 14 -13 21 -14 27 -5 4 8 3 10 -5 5
-7 -4 -14 2 -19 15 -5 13 -12 18 -15 12z"/>
<path d="M7030 5876 c0 -2 8 -10 18 -17 15 -13 16 -12 3 4 -13 16 -21 21 -21
13z"/>
<path d="M4924 5655 c0 -82 2 -115 3 -72 2 43 2 110 0 150 -1 40 -3 5 -3 -78z"/>
<path d="M3590 5731 c0 -6 4 -13 10 -16 6 -3 7 1 4 9 -7 18 -14 21 -14 7z"/>
<path d="M3420 5693 c0 -7 0 -16 0 -20 0 -5 4 -8 9 -8 5 0 13 -4 18 -9 5 -5 3
-6 -4 -2 -8 4 -13 1 -13 -8 0 -9 7 -16 15 -16 8 0 15 9 15 20 0 11 0 23 0 28
0 4 -6 7 -12 7 -7 0 -16 5 -20 10 -5 6 -8 5 -8 -2z"/>
<path d="M3556 5645 c-3 -8 -1 -15 4 -15 6 0 10 7 10 15 0 8 -2 15 -4 15 -2 0
-6 -7 -10 -15z"/>
<path d="M3550 5584 c0 -20 27 -37 36 -23 4 7 3 9 -4 5 -6 -3 -15 2 -21 11 -6
10 -11 13 -11 7z"/>
<path d="M4880 5454 c0 -65 4 -114 8 -107 9 14 7 212 -2 220 -3 4 -6 -47 -6
-113z"/>
<path d="M3570 5500 c-9 -6 -10 -10 -3 -10 6 0 15 5 18 10 8 12 4 12 -15 0z"/>
<path d="M4923 5425 c0 -44 2 -61 4 -37 2 23 2 59 0 80 -2 20 -4 1 -4 -43z"/>
<path d="M3460 5440 c0 -5 5 -10 11 -10 5 0 7 5 4 10 -3 6 -8 10 -11 10 -2 0
-4 -4 -4 -10z"/>
<path d="M5791 5434 c0 -11 3 -14 6 -6 3 7 2 16 -1 19 -3 4 -6 -2 -5 -13z"/>
<path d="M3277 5409 c7 -7 15 -10 18 -7 3 3 -2 9 -12 12 -14 6 -15 5 -6 -5z"/>
<path d="M3300 5379 c0 -5 -5 -7 -12 -3 -7 4 -8 3 -4 -4 8 -14 42 -16 50 -3 3
5 -1 12 -10 15 -21 8 -24 8 -24 -5z"/>
<path d="M3430 5320 c0 -5 5 -10 11 -10 5 0 7 5 4 10 -3 6 -8 10 -11 10 -2 0
-4 -4 -4 -10z"/>
<path d="M3580 5276 c0 -9 30 -14 35 -6 4 6 -3 10 -14 10 -12 0 -21 -2 -21 -4z"/>
<path d="M5033 5263 c42 -2 112 -2 155 0 42 1 7 3 -78 3 -85 0 -120 -2 -77 -3z"/>
<path d="M5378 5263 c6 -2 18 -2 25 0 6 3 1 5 -13 5 -14 0 -19 -2 -12 -5z"/>
<path d="M5493 5263 c37 -2 96 -2 130 0 34 2 4 3 -68 3 -71 0 -99 -1 -62 -3z"/>
<path d="M3647 5215 c-17 -24 -13 -32 9 -17 13 9 26 42 16 42 -4 0 -15 -12
-25 -25z"/>
<path d="M3286 5183 c5 -5 12 -12 16 -18 4 -6 8 -2 8 8 0 9 -7 17 -17 17 -9 0
-12 -3 -7 -7z"/>
<path d="M3264 5155 c3 -9 6 -19 6 -21 0 -2 7 -4 15 -4 25 0 13 32 -14 38 -9
2 -11 -3 -7 -13z"/>
<path d="M6910 5120 c0 -5 5 -10 10 -10 6 0 10 5 10 10 0 6 -4 10 -10 10 -5 0
-10 -4 -10 -10z"/>
<path d="M4680 5080 c-9 -6 -10 -10 -3 -10 6 0 15 5 18 10 8 12 4 12 -15 0z"/>
<path d="M4740 5057 c-58 -4 -122 -8 -142 -8 -26 -1 -38 -6 -38 -15 0 -8 5
-14 11 -14 8 0 7 -6 -2 -17 -13 -16 -12 -17 3 -5 10 8 14 21 11 30 -5 14 -3
15 7 5 10 -9 18 -9 34 0 15 9 184 13 641 17 l620 5 -520 5 c-286 3 -567 2
-625 -3z"/>
<path d="M6753 5063 c9 -2 23 -2 30 0 6 3 -1 5 -18 5 -16 0 -22 -2 -12 -5z"/>
<path d="M5908 5053 c7 -3 16 -2 19 1 4 3 -2 6 -13 5 -11 0 -14 -3 -6 -6z"/>
<path d="M6628 5053 c7 -3 16 -2 19 1 4 3 -2 6 -13 5 -11 0 -14 -3 -6 -6z"/>
<path d="M4301 4980 c-20 -37 -27 -59 -19 -58 8 2 12 -4 10 -16 -2 -11 2 -16
9 -14 7 2 14 19 15 38 2 18 10 37 18 42 17 10 22 38 6 38 -5 0 -7 7 -4 15 13
33 -3 12 -35 -45z"/>
<path d="M4547 4973 c-4 -3 -17 -7 -30 -8 -14 -1 -23 -9 -25 -23 -2 -12 -8
-22 -13 -22 -5 0 -9 -5 -9 -11 0 -5 5 -7 10 -4 13 8 13 -31 0 -56 -6 -10 -8
-19 -6 -19 12 0 36 61 30 73 -4 7 -4 9 1 5 7 -7 60 61 52 68 -2 2 -7 1 -10 -3z
m-17 -27 c0 -3 -4 -8 -10 -11 -5 -3 -10 -1 -10 4 0 6 5 11 10 11 6 0 10 -2 10
-4z"/>
<path d="M4219 4838 c-23 -40 -44 -76 -46 -80 -2 -4 3 -5 12 -2 10 4 14 2 10
-7 -3 -10 3 -14 21 -15 25 -2 26 -1 22 52 -1 30 1 54 6 54 5 0 7 3 3 6 -3 4 0
19 9 35 29 58 4 27 -37 -43z m-2 -60 c-3 -8 -6 -5 -6 6 -1 11 2 17 5 13 3 -3
4 -12 1 -19z"/>
<path d="M4410 4769 c1 -33 3 -40 10 -27 11 17 9 53 -3 64 -4 4 -7 -13 -7 -37z"/>
<path d="M4146 4712 c-9 -18 -11 -33 -5 -43 7 -11 9 -9 9 8 0 32 11 54 23 46
6 -3 7 -1 3 5 -10 17 -14 15 -30 -16z"/>
<path d="M4374 4665 c-4 -8 -10 -15 -16 -15 -5 0 -6 4 -3 10 3 5 0 7 -7 5 -7
-3 -19 -15 -27 -27 -15 -24 -22 -90 -9 -86 10 4 82 128 73 128 -3 0 -8 -7 -11
-15z m-51 -70 c-3 -9 -8 -14 -10 -11 -3 3 -2 9 2 15 9 16 15 13 8 -4z"/>
<path d="M4086 4615 c-9 -13 -16 -27 -16 -29 0 -3 -19 -36 -42 -73 -22 -38
-54 -90 -69 -118 l-28 -50 -498 -5 -498 -5 0 -488 0 -487 862 0 862 0 4 -112
3 -113 2 118 2 117 -592 1 c-326 0 -637 0 -690 -1 -69 -1 -98 2 -98 11 0 7 10
9 25 7 14 -3 28 -1 32 5 3 5 1 7 -5 3 -6 -3 -13 -2 -16 3 -3 5 1 11 9 15 8 3
18 -1 22 -8 5 -7 19 -16 33 -19 24 -6 24 -5 6 8 -11 8 -23 15 -28 15 -4 0 -8
5 -8 11 0 6 9 8 21 4 16 -5 20 -3 17 6 -6 18 -46 12 -76 -12 -14 -10 -28 -16
-33 -13 -14 9 0 24 22 24 12 0 19 5 16 13 -5 13 -40 11 -45 -4 -2 -5 -8 -7
-13 -3 -8 5 -13 -9 -10 -28 2 -12 -14 -9 -27 4 -15 15 -16 31 0 22 7 -4 8 -3
4 4 -4 7 -13 12 -19 12 -18 0 -43 43 -28 48 9 3 9 8 -1 20 -8 10 -9 13 -1 9 6
-4 14 -3 18 2 3 5 18 16 34 24 27 13 30 13 34 -4 6 -23 23 -25 31 -3 5 14 4
15 -9 4 -13 -11 -15 -9 -11 11 2 14 -4 33 -16 45 -16 18 -17 22 -4 27 10 4 13
1 9 -9 -3 -7 0 -14 6 -14 6 0 11 7 11 15 0 8 6 14 12 12 9 -1 12 10 11 37 -2
23 2 43 10 48 8 5 7 8 -5 8 -14 0 -18 -8 -18 -38 0 -21 -3 -41 -6 -45 -12 -11
-33 5 -28 21 5 15 4 15 -9 0 -8 -10 -18 -14 -22 -10 -5 4 -5 -1 -1 -12 4 -13
2 -17 -8 -13 -8 3 -17 1 -20 -6 -3 -7 -4 -1 -3 13 1 14 7 28 12 32 6 5 6 8 -2
8 -7 0 -17 -8 -23 -17 -11 -17 -11 -17 -6 -1 8 25 -13 33 -30 12 -9 -11 -13
-14 -10 -7 4 6 2 14 -4 18 -6 4 -10 -5 -10 -19 0 -14 -4 -26 -8 -26 -11 0 -9
70 1 88 5 6 4 12 -2 12 -5 0 -15 -8 -20 -17 -6 -10 -11 -14 -11 -10 0 4 7 18
16 31 11 18 12 26 3 32 -8 4 -9 3 -5 -4 4 -7 2 -12 -3 -12 -6 0 -11 5 -11 10
0 7 -7 7 -22 0 -21 -10 -21 -9 2 9 14 11 28 21 31 21 4 0 9 14 13 31 6 34 -6
70 -18 50 -4 -6 -2 -11 5 -11 18 0 2 -13 -21 -17 -25 -4 -43 29 -34 62 7 29
38 34 53 8 7 -12 10 -14 11 -4 0 9 8 12 25 9 28 -6 31 -2 11 17 -9 9 -17 10
-24 3 -15 -15 -8 48 8 67 8 10 9 15 1 15 -6 0 -11 -5 -11 -11 0 -5 -5 -7 -11
-3 -8 4 -8 9 -1 13 11 7 11 29 -1 47 -3 6 -3 14 0 18 4 4 13 -4 20 -16 7 -13
12 -17 13 -10 0 7 5 10 10 7 6 -3 10 -1 10 5 0 7 -7 10 -15 6 -10 -3 -15 1
-15 14 0 25 16 34 24 14 8 -21 27 -8 19 14 -4 13 -2 13 10 -3 19 -23 22 -39 5
-29 -7 4 -8 3 -4 -4 7 -12 35 -5 37 9 1 5 2 15 3 22 1 6 8 11 15 9 8 -2 11 3
8 13 -8 19 -3 19 17 -1 15 -14 16 -14 16 0 0 9 -4 16 -9 16 -5 0 -13 9 -16 20
-5 15 -12 19 -26 15 -14 -5 -19 -2 -19 12 0 12 3 14 8 6 6 -10 14 -9 36 2 37
20 39 19 25 -7 -11 -20 -10 -21 3 -10 13 10 16 9 21 -8 3 -11 2 -22 -2 -25
-10 -6 -1 -64 11 -71 5 -3 8 13 6 38 -3 41 -2 43 23 40 15 -1 32 4 39 13 7 8
17 12 24 8 6 -3 8 -3 4 2 -4 4 -3 14 4 22 9 11 8 13 -3 11 -7 -2 -18 -11 -24
-22 -10 -19 -32 -22 -27 -4 2 6 0 18 -3 26 -4 11 -9 11 -18 3 -10 -8 -19 -7
-33 5 -18 14 -18 15 4 4 12 -6 22 -7 22 -2 0 6 -8 12 -18 14 -10 3 -19 13 -19
22 0 19 23 22 30 4 3 -8 6 -7 6 4 1 10 -8 18 -21 21 l-23 4 23 2 c12 0 22 5
22 9 0 14 121 6 132 -9 8 -11 9 -10 4 4 -7 21 25 24 46 5 7 -7 22 -13 33 -13
35 1 90 -16 102 -32 11 -14 13 -14 18 -1 7 17 57 18 62 1 3 -7 12 -9 21 -6 10
3 13 1 7 -4 -11 -9 -12 -49 -1 -60 10 -10 15 0 19 38 4 42 15 62 29 53 7 -5 9
0 6 14 -6 21 -3 22 57 22 43 0 68 5 79 15 8 8 22 12 30 9 9 -3 16 -1 16 5 0 6
-6 10 -12 9 -7 -2 -13 4 -13 12 0 8 8 14 17 14 10 -1 17 1 16 5 -4 16 15 70
23 65 8 -5 13 9 10 29 -1 4 10 5 24 3 22 -4 25 -1 26 27 1 18 1 35 0 40 -1 4
5 23 13 42 18 41 15 45 -8 10z m-803 -355 c-4 -16 -8 -18 -19 -9 -12 10 -13 8
-8 -7 5 -16 4 -16 -5 -4 -8 11 -7 18 6 28 24 17 32 15 26 -8z m-106 -72 c-3
-8 -6 -5 -6 6 -1 11 2 17 5 13 3 -3 4 -12 1 -19z m163 12 c0 -5 -2 -10 -4 -10
-3 0 -8 5 -11 10 -3 6 -1 10 4 10 6 0 11 -4 11 -10z m-235 -230 c-3 -5 -14
-10 -23 -9 -14 0 -13 2 3 9 27 11 27 11 20 0z m-39 -279 c-4 -5 0 -11 6 -14 7
-2 10 -8 5 -12 -10 -12 -31 11 -23 24 4 6 9 11 12 11 3 0 3 -4 0 -9z m11 -63
c-3 -8 -6 -5 -6 6 -1 11 2 17 5 13 3 -3 4 -12 1 -19z m73 -12 c0 -9 -9 -14
-20 -13 -20 1 -25 9 -13 20 12 12 33 7 33 -7z m31 -43 c13 -16 12 -17 -3 -4
-17 13 -22 21 -14 21 2 0 10 -8 17 -17z m-11 -99 c0 -17 -17 -27 -25 -14 -4 6
-11 8 -16 5 -5 -4 -9 -2 -9 4 0 5 6 11 13 14 22 7 37 4 37 -9z m-26 -66 c-3
-4 -12 -8 -20 -8 -8 0 -13 4 -10 8 3 5 12 9 20 9 8 0 13 -4 10 -9z m81 2 c3
-5 -3 -10 -15 -10 -12 0 -18 5 -15 10 3 6 10 10 15 10 5 0 12 -4 15 -10z m-5
-32 c0 -11 -148 -10 -154 0 -3 4 31 8 75 8 43 -1 79 -4 79 -8z m50 2 c0 -5 -7
-10 -16 -10 -8 0 -12 5 -9 10 3 6 10 10 16 10 5 0 9 -4 9 -10z"/>
<path d="M4240 4460 c0 -16 2 -30 5 -30 2 0 11 14 20 30 15 29 15 30 -5 30
-16 0 -20 -7 -20 -30z"/>
<path d="M7885 4470 c10 -11 20 -20 23 -20 3 0 -3 9 -13 20 -10 11 -20 20 -23
20 -3 0 3 -9 13 -20z"/>
<path d="M4205 4411 c-3 -6 -10 -9 -15 -6 -5 3 -12 -6 -16 -20 -3 -13 -11 -22
-16 -19 -6 4 -5 -2 1 -14 6 -12 15 -23 20 -26 12 -8 53 76 42 87 -5 5 -12 4
-16 -2z"/>
<path d="M4202 4328 c-7 -7 -12 -16 -12 -20 0 -12 78 -2 94 11 8 7 100 10 255
10 134 0 246 3 249 6 3 3 -125 5 -284 5 -212 0 -293 -3 -302 -12z"/>
<path d="M4978 4333 c100 -2 264 -2 365 0 100 1 18 2 -183 2 -201 0 -283 -1
-182 -2z"/>
<path d="M5688 4333 c12 -2 32 -2 45 0 12 2 2 4 -23 4 -25 0 -35 -2 -22 -4z"/>
<path d="M5773 4333 c9 -2 23 -2 30 0 6 3 -1 5 -18 5 -16 0 -22 -2 -12 -5z"/>
<path d="M5833 4333 c9 -2 25 -2 35 0 9 3 1 5 -18 5 -19 0 -27 -2 -17 -5z"/>
<path d="M6608 4333 c6 -2 18 -2 25 0 6 3 1 5 -13 5 -14 0 -19 -2 -12 -5z"/>
<path d="M6668 4333 c6 -2 18 -2 25 0 6 3 1 5 -13 5 -14 0 -19 -2 -12 -5z"/>
<path d="M6733 4333 c9 -2 23 -2 30 0 6 3 -1 5 -18 5 -16 0 -22 -2 -12 -5z"/>
<path d="M3340 4295 c0 -8 2 -15 4 -15 2 0 6 7 10 15 3 8 1 15 -4 15 -6 0 -10
-7 -10 -15z"/>
<path d="M3785 4256 c0 -12 4 -27 9 -35 6 -10 6 -12 -2 -7 -12 7 -16 -3 -13
-39 2 -17 0 -17 -8 -5 -9 13 -11 13 -11 -2 0 -22 13 -23 30 -4 6 8 19 12 28 9
10 -3 13 -1 7 4 -13 10 -18 30 -17 69 0 17 -5 31 -12 31 -7 0 -12 -10 -11 -21z"/>
<path d="M7120 4216 c0 -2 8 -10 18 -17 15 -13 16 -12 3 4 -13 16 -21 21 -21
13z"/>
<path d="M4935 4161 c11 -5 37 -8 58 -7 21 0 36 -3 34 -9 -2 -5 -19 -9 -38 -8
-27 2 -30 1 -14 -6 26 -12 285 -14 266 -2 -7 5 -21 6 -31 4 -10 -3 -21 0 -24
6 -4 6 -1 11 6 12 164 10 126 19 -83 18 -108 0 -185 -4 -174 -8z m135 -11 c0
-5 5 -10 11 -10 5 0 7 5 4 10 -7 12 -3 12 19 4 28 -11 17 -20 -24 -21 -38 -1
-48 6 -33 20 10 10 23 8 23 -3z"/>
<path d="M5461 4166 c2 -2 28 -6 58 -8 83 -6 72 -23 -15 -26 -114 -3 -103 -12
14 -12 66 0 103 4 108 12 5 7 2 9 -8 6 -8 -4 -15 -1 -15 6 0 7 20 12 50 14
100 4 57 12 -68 12 -71 0 -126 -2 -124 -4z"/>
<path d="M5324 4132 c4 -3 14 -7 22 -8 9 -1 13 0 10 4 -4 3 -14 7 -22 8 -9 1
-13 0 -10 -4z"/>
<path d="M3238 4117 c5 -7 6 -21 1 -32 -11 -28 -11 -35 3 -35 6 0 8 3 5 7 -9
9 12 33 30 33 8 0 12 -4 8 -9 -3 -5 -1 -12 5 -16 5 -3 10 -15 10 -25 0 -10 3
-21 8 -24 16 -10 5 67 -11 79 -9 6 -13 15 -9 19 4 4 3 7 -3 6 -5 -1 -12 -1
-15 0 -3 1 -13 3 -23 5 -13 2 -15 0 -9 -8z"/>
<path d="M3341 4121 c-9 -6 -10 -14 -3 -27 5 -11 8 -28 6 -39 -8 -52 -8 -64 0
-65 6 0 10 26 11 57 0 32 4 64 8 71 9 14 -2 16 -22 3z"/>
<path d="M3821 4114 c0 -11 3 -14 6 -6 3 7 2 16 -1 19 -3 4 -6 -2 -5 -13z"/>
<path d="M5268 4123 c6 -2 18 -2 25 0 6 3 1 5 -13 5 -14 0 -19 -2 -12 -5z"/>
<path d="M3461 4093 c0 -16 3 -22 6 -15 2 6 10 9 16 5 8 -5 8 -2 0 9 -7 8 -10
18 -6 21 3 4 1 7 -5 7 -7 0 -12 -12 -11 -27z"/>
<path d="M4924 3915 c0 -110 2 -156 3 -103 2 53 2 143 0 200 -1 57 -3 13 -3
-97z"/>
<path d="M3190 4055 c-11 -13 -10 -14 6 -8 16 6 17 4 6 -9 -7 -8 -9 -23 -6
-32 6 -15 8 -15 21 4 8 11 20 18 26 14 7 -3 4 1 -5 9 -10 8 -18 19 -18 26 0
16 -15 14 -30 -4z"/>
<path d="M3261 4043 c-1 -14 5 -23 14 -23 9 0 15 9 15 23 0 16 -3 18 -9 8 -7
-11 -9 -11 -14 0 -3 8 -6 4 -6 -8z"/>
<path d="M3376 4044 c-4 -9 -4 -19 -1 -22 2 -3 7 3 11 12 4 9 4 19 1 22 -2 3
-7 -3 -11 -12z"/>
<path d="M3411 4028 c-1 -10 -7 -18 -15 -18 -16 0 -29 -27 -16 -35 5 -3 11 3
13 12 4 16 5 16 6 1 0 -9 -3 -20 -9 -23 -16 -10 -12 -25 5 -19 8 4 15 18 15
34 0 19 6 29 20 33 21 5 28 27 9 27 -5 0 -7 -4 -4 -10 3 -5 2 -10 -4 -10 -5 0
-12 6 -14 13 -3 7 -6 5 -6 -5z"/>
<path d="M3456 4005 c-4 -14 -11 -23 -16 -20 -6 4 -7 -1 -3 -11 4 -11 8 -13
11 -6 2 7 8 10 13 6 5 -3 9 9 9 25 0 38 -6 40 -14 6z"/>
<path d="M4880 3934 c0 -48 3 -85 6 -82 10 10 12 158 3 164 -5 3 -9 -34 -9
-82z"/>
<path d="M3215 3963 c-17 -13 -17 -15 -2 -9 10 3 16 2 13 -2 -6 -10 22 -47 30
-39 4 4 2 13 -4 20 -7 8 -9 17 -5 20 3 4 1 7 -6 7 -7 0 -9 5 -6 10 9 14 3 12
-20 -7z"/>
<path d="M3290 3974 c0 -6 6 -16 13 -23 10 -10 9 -11 -4 -6 -10 4 -20 2 -24
-4 -3 -6 1 -11 9 -11 12 0 16 -11 16 -45 0 -29 -4 -45 -12 -45 -10 0 -10 -2 0
-8 7 -5 10 -16 6 -25 -4 -12 -1 -17 11 -17 9 0 13 5 9 11 -4 8 -1 8 13 1 15
-8 22 -7 31 8 9 14 8 20 -1 24 -9 3 -9 7 2 14 9 7 10 12 2 16 -6 4 -8 12 -5
18 4 7 2 8 -4 4 -7 -4 -12 -19 -13 -34 0 -15 -3 -21 -6 -14 -2 6 -10 9 -16 6
-8 -5 -8 -2 1 7 14 16 16 53 2 44 -5 -3 -10 -2 -10 3 0 6 7 12 15 16 8 3 15 1
15 -4 0 -6 5 -10 11 -10 5 0 8 4 5 9 -4 5 -1 11 5 13 7 2 5 9 -5 17 -14 12
-16 12 -10 -3 5 -12 2 -15 -10 -10 -9 3 -14 10 -11 14 2 4 -4 15 -15 25 -11
10 -20 14 -20 9z"/>
<path d="M3460 3949 c0 -5 -4 -7 -10 -4 -5 3 -10 2 -10 -4 0 -5 5 -11 12 -13
8 -3 8 -9 -1 -24 -11 -17 -12 -17 -7 0 5 14 2 17 -11 12 -9 -4 -21 -1 -26 6
-6 9 -7 7 -3 -6 5 -14 2 -17 -9 -12 -13 5 -14 2 -3 -17 10 -19 13 -20 16 -4 4
22 8 21 34 -3 21 -20 21 -21 4 -38 -18 -16 -19 -16 -13 1 4 11 3 16 -4 12 -6
-4 -8 -13 -5 -21 4 -11 0 -13 -18 -8 -14 3 -27 -1 -35 -10 -8 -9 -12 -16 -10
-17 44 -8 48 -8 43 6 -4 11 -2 13 9 9 8 -3 18 -1 22 5 3 6 15 11 26 11 13 0
18 4 13 11 -4 7 -6 36 -5 65 1 30 -1 54 -4 54 -3 0 -5 -5 -5 -11z"/>
<path d="M3200 3929 c0 -5 5 -7 10 -4 6 3 10 8 10 11 0 2 -4 4 -10 4 -5 0 -10
-5 -10 -11z"/>
<path d="M3223 3852 c-8 -15 -6 -20 13 -29 18 -8 22 -8 17 0 -4 7 -8 18 -9 25
-4 22 -9 22 -21 4z"/>
<path d="M4882 3820 c0 -14 2 -19 5 -12 2 6 2 18 0 25 -3 6 -5 1 -5 -13z"/>
<path d="M3430 3800 c-8 -5 -10 -10 -5 -10 6 0 17 5 25 10 8 5 11 10 5 10 -5
0 -17 -5 -25 -10z"/>
<path d="M3340 3765 c0 -8 2 -15 4 -15 2 0 6 7 10 15 3 8 1 15 -4 15 -6 0 -10
-7 -10 -15z"/>
<path d="M3135 3760 c3 -5 8 -10 11 -10 2 0 4 5 4 10 0 6 -5 10 -11 10 -5 0
-7 -4 -4 -10z"/>
<path d="M3142 3720 c0 -14 2 -19 5 -12 2 6 2 18 0 25 -3 6 -5 1 -5 -13z"/>
<path d="M3213 3725 c0 -8 4 -15 8 -15 4 0 9 7 13 15 3 9 0 15 -8 15 -7 0 -13
-7 -13 -15z"/>
<path d="M3580 3701 c15 -30 30 -35 17 -6 -7 14 -16 25 -20 25 -4 0 -3 -9 3
-19z"/>
<path d="M4924 3550 c0 -85 2 -120 3 -77 2 42 2 112 0 155 -1 42 -3 7 -3 -78z"/>
<path d="M4881 3614 c0 -11 3 -14 6 -6 3 7 2 16 -1 19 -3 4 -6 -2 -5 -13z"/>
<path d="M4882 3460 c-1 -85 2 -130 7 -120 6 8 7 18 4 22 -2 5 1 15 7 23 7 8
8 15 3 15 -5 0 -9 26 -9 58 1 31 -2 75 -5 97 -3 22 -7 -21 -7 -95z"/>
<path d="M7085 3434 l-30 -26 33 22 c17 12 32 23 32 26 0 7 -4 5 -35 -22z"/>
<path d="M3666 3398 c3 -5 10 -6 15 -3 13 9 11 12 -6 12 -8 0 -12 -4 -9 -9z"/>
<path d="M4923 3345 c0 -22 2 -30 4 -17 2 12 2 30 0 40 -3 9 -5 -1 -4 -23z"/>
<path d="M5790 3354 c0 -15 39 -17 80 -4 21 7 22 8 5 10 -74 8 -85 7 -85 -6z"/>
<path d="M5917 3363 c-4 -3 -7 -10 -7 -15 0 -4 205 -8 456 -8 252 0 454 3 451
6 -3 3 -162 6 -354 6 -191 1 -356 5 -365 10 -12 6 -18 5 -18 -2 0 -13 -129
-12 -146 1 -6 5 -14 6 -17 2z"/>
<path d="M4703 3162 c1 -111 5 -202 10 -202 10 0 8 372 -3 390 -5 9 -8 -61 -7
-188z"/>
<path d="M4881 3304 c0 -11 3 -14 6 -6 3 7 2 16 -1 19 -3 4 -6 -2 -5 -13z"/>
<path d="M4921 3284 c0 -11 3 -14 6 -6 3 7 2 16 -1 19 -3 4 -6 -2 -5 -13z"/>
<path d="M4921 3164 c0 -11 3 -14 6 -6 3 7 2 16 -1 19 -3 4 -6 -2 -5 -13z"/>
<path d="M4922 3110 c0 -19 2 -27 5 -17 2 9 2 25 0 35 -3 9 -5 1 -5 -18z"/>
<path d="M4661 3084 c0 -11 3 -14 6 -6 3 7 2 16 -1 19 -3 4 -6 -2 -5 -13z"/>
<path d="M4882 2980 c-1 -83 2 -108 9 -91 5 13 7 32 4 42 -3 9 -1 20 5 24 8 5
8 11 0 20 -7 8 -10 18 -7 22 2 4 1 28 -3 53 -6 34 -8 16 -8 -70z"/>
<path d="M4661 2834 c1 -126 5 -206 8 -179 4 28 10 56 15 64 6 9 5 12 -2 7 -7
-4 -11 45 -12 161 0 92 -3 169 -5 172 -3 2 -4 -99 -4 -225z"/>
<path d="M4924 2950 c0 -63 1 -89 3 -57 2 31 2 83 0 115 -2 31 -3 5 -3 -58z"/>
<path d="M4703 2777 c-2 -110 1 -164 6 -151 11 25 13 311 3 318 -4 2 -8 -73
-9 -167z"/>
<path d="M4882 2840 c0 -14 2 -19 5 -12 2 6 2 18 0 25 -3 6 -5 1 -5 -13z"/>
<path d="M4882 2689 c0 -17 2 -28 5 -25 9 9 12 56 4 56 -5 0 -8 -14 -9 -31z"/>
<path d="M4921 2664 c0 -11 3 -14 6 -6 3 7 2 16 -1 19 -3 4 -6 -2 -5 -13z"/>
<path d="M5158 2583 c122 -2 322 -2 445 0 122 1 22 2 -223 2 -245 0 -345 -1
-222 -2z"/>
<path d="M5948 2583 c6 -2 18 -2 25 0 6 3 1 5 -13 5 -14 0 -19 -2 -12 -5z"/>
<path d="M6023 2583 c9 -2 23 -2 30 0 6 3 -1 5 -18 5 -16 0 -22 -2 -12 -5z"/>
<path d="M6133 2583 c9 -2 25 -2 35 0 9 3 1 5 -18 5 -19 0 -27 -2 -17 -5z"/>
<path d="M6278 2583 c7 -3 16 -2 19 1 4 3 -2 6 -13 5 -11 0 -14 -3 -6 -6z"/>
<path d="M6347 2583 c18 -2 50 -2 70 0 21 2 7 4 -32 4 -38 0 -55 -2 -38 -4z"/>
<path d="M6473 2583 c9 -2 23 -2 30 0 6 3 -1 5 -18 5 -16 0 -22 -2 -12 -5z"/>
<path d="M6563 2583 c26 -2 67 -2 90 0 23 2 2 3 -48 3 -49 0 -68 -1 -42 -3z"/>
<path d="M6738 2583 c7 -3 16 -2 19 1 4 3 -2 6 -13 5 -11 0 -14 -3 -6 -6z"/>
<path d="M3790 2488 c-18 -15 -20 -19 -6 -15 14 6 17 3 12 -8 -6 -17 2 -19 23
-6 10 6 10 10 1 16 -6 4 -9 13 -6 21 7 18 6 18 -24 -8z"/>
<path d="M3381 2444 c0 -11 3 -14 6 -6 3 7 2 16 -1 19 -3 4 -6 -2 -5 -13z"/>
<path d="M3674 2393 c10 -11 37 -12 30 -2 -3 5 -12 9 -21 9 -9 0 -13 -3 -9 -7z"/>
<path d="M3765 2390 c-3 -5 1 -10 10 -10 9 0 13 5 10 10 -3 6 -8 10 -10 10 -2
0 -7 -4 -10 -10z"/>
<path d="M3440 2366 c0 -2 7 -9 15 -16 13 -11 14 -10 9 4 -5 14 -24 23 -24 12z"/>
<path d="M3520 2350 c0 -5 5 -10 11 -10 5 0 7 5 4 10 -3 6 -8 10 -11 10 -2 0
-4 -4 -4 -10z"/>
<path d="M3586 2328 c3 -5 10 -6 15 -3 13 9 11 12 -6 12 -8 0 -12 -4 -9 -9z"/>
<path d="M3560 2316 c0 -2 7 -7 16 -10 8 -3 12 -2 9 4 -6 10 -25 14 -25 6z"/>
<path d="M3600 2300 c-18 -16 -20 -20 -7 -20 10 0 17 6 17 13 1 6 10 1 20 -12
16 -18 20 -20 20 -7 0 10 4 15 8 12 5 -3 9 1 9 9 0 17 -13 20 -22 5 -4 -6 -11
-8 -16 -4 -5 3 -7 10 -4 15 10 15 0 10 -25 -11z"/>
<path d="M3351 2294 c0 -11 3 -14 6 -6 3 7 2 16 -1 19 -3 4 -6 -2 -5 -13z"/>
<path d="M3455 2270 c-3 -5 -2 -17 3 -26 8 -14 10 -12 10 9 0 29 -3 33 -13 17z"/>
<path d="M3615 2270 c-3 -5 -1 -10 4 -10 6 0 11 5 11 10 0 6 -2 10 -4 10 -3 0
-8 -4 -11 -10z"/>
<path d="M3341 2263 c-1 -17 16 -25 25 -12 4 7 3 9 -4 5 -5 -3 -13 0 -15 6 -4
9 -6 10 -6 1z"/>
<path d="M3455 2190 c-3 -5 -1 -10 4 -10 6 0 11 5 11 10 0 6 -2 10 -4 10 -3 0
-8 -4 -11 -10z"/>
<path d="M3620 2191 c0 -6 5 -13 12 -17 6 -4 8 -3 4 4 -3 5 0 13 6 15 8 3 6 6
-4 6 -10 1 -18 -3 -18 -8z"/>
<path d="M3913 2078 c-4 -7 -8 -18 -9 -25 -3 -16 38 -7 48 11 5 9 16 13 26 10
14 -5 15 -4 2 5 -20 15 -57 14 -67 -1z"/>
<path d="M3344 1891 c0 -11 4 -17 8 -15 4 3 8 12 8 20 0 8 -4 14 -8 14 -4 0
-8 -9 -8 -19z"/>
<path d="M3180 1860 c0 -13 18 -22 24 -11 3 5 -1 11 -9 15 -8 3 -15 1 -15 -4z"/>
<path d="M3230 1861 c0 -6 4 -13 10 -16 6 -3 7 1 4 9 -7 18 -14 21 -14 7z"/>
<path d="M3337 1841 c3 -12 9 -21 13 -21 12 0 5 33 -8 38 -6 2 -8 -5 -5 -17z"/>
<path d="M3210 1831 c0 -5 5 -13 10 -16 6 -3 10 -2 10 4 0 5 -4 13 -10 16 -5
3 -10 2 -10 -4z"/>
<path d="M3440 1830 c0 -5 7 -7 15 -4 8 4 15 8 15 10 0 2 -7 4 -15 4 -8 0 -15
-4 -15 -10z"/>
<path d="M3440 1799 c0 -5 5 -7 10 -4 6 3 10 1 10 -4 0 -6 -6 -11 -12 -11 -9
0 -8 -3 2 -9 21 -14 32 -3 20 20 -11 20 -30 26 -30 8z"/>
<path d="M3160 1739 c0 -5 -6 -7 -12 -3 -7 4 -10 4 -6 -1 14 -15 -12 -35 -32
-25 -14 7 -19 5 -23 -10 -6 -23 3 -26 21 -8 19 19 14 -3 -5 -25 -17 -19 -17
-20 5 -8 12 6 22 18 22 25 0 8 12 17 28 21 15 4 22 9 15 12 -7 2 -9 11 -6 19
3 8 2 14 -1 14 -3 0 -6 -5 -6 -11z"/>
<path d="M3443 1727 c-9 -19 -8 -23 8 -24 12 -1 19 5 19 17 0 28 -16 32 -27 7z"/>
<path d="M3465 1550 c-3 -5 -1 -10 4 -10 6 0 11 5 11 10 0 6 -2 10 -4 10 -3 0
-8 -4 -11 -10z"/>
<path d="M3278 1392 c-4 -15 -1 -18 14 -14 11 2 16 8 11 11 -4 3 -11 10 -14
14 -4 4 -9 -1 -11 -11z"/>
<path d="M3377 1354 c-4 -4 -7 -14 -7 -23 0 -11 3 -12 11 -4 6 6 10 16 7 23
-2 6 -7 8 -11 4z"/>
<path d="M3461 1324 c0 -11 3 -14 6 -6 3 7 2 16 -1 19 -3 4 -6 -2 -5 -13z"/>
<path d="M3336 1321 c-17 -6 -17 -8 -4 -14 10 -3 19 0 22 9 3 8 4 14 3 13 -1
0 -11 -4 -21 -8z"/>
<path d="M3211 1284 c0 -11 3 -14 6 -6 3 7 2 16 -1 19 -3 4 -6 -2 -5 -13z"/>
<path d="M3455 1255 c-1 -46 11 -46 13 0 1 19 -2 35 -6 35 -4 0 -7 -16 -7 -35z"/>
<path d="M3376 1265 c4 -8 8 -15 10 -15 2 0 4 7 4 15 0 8 -4 15 -10 15 -5 0
-7 -7 -4 -15z"/>
<path d="M3402 1205 c2 -38 5 -50 11 -39 5 8 6 18 3 21 -3 4 0 13 7 21 10 13
9 14 -1 8 -9 -6 -11 -1 -8 18 3 14 0 26 -5 26 -5 0 -8 -25 -7 -55z"/>
<path d="M3234 1212 c4 -7 3 -12 -3 -12 -6 0 -15 -10 -22 -21 -8 -15 -8 -19 0
-15 6 4 11 2 11 -3 0 -6 -4 -11 -10 -11 -17 0 1 -28 21 -33 17 -5 19 0 19 43
0 27 -5 52 -12 56 -7 4 -8 3 -4 -4z"/>
<path d="M3460 1175 c0 -19 4 -35 8 -35 4 0 6 16 4 35 -2 19 -6 35 -8 35 -2 0
-4 -16 -4 -35z"/>
<path d="M3170 1155 c-7 -9 -8 -15 -2 -15 5 0 12 7 16 15 3 8 4 15 2 15 -2 0
-9 -7 -16 -15z"/>
<path d="M3616 1105 c-3 -9 0 -15 9 -15 9 0 12 6 9 15 -4 8 -7 15 -9 15 -2 0
-5 -7 -9 -15z"/>
<path d="M3443 1098 c4 -21 21 -36 35 -31 9 4 6 11 -9 24 -26 22 -30 23 -26 7z"/>
<path d="M3341 1064 c0 -11 3 -14 6 -6 3 7 2 16 -1 19 -3 4 -6 -2 -5 -13z"/>
<path d="M3456 991 c-3 -5 1 -11 9 -14 9 -4 12 -1 8 9 -6 16 -10 17 -17 5z"/>
<path d="M3255 920 c-8 -13 5 -13 25 0 13 8 13 10 -2 10 -9 0 -20 -4 -23 -10z"/>
<path d="M3330 889 c0 -5 5 -7 10 -4 6 3 10 8 10 11 0 2 -4 4 -10 4 -5 0 -10
-5 -10 -11z"/>
<path d="M3300 780 c0 -5 7 -7 15 -4 8 4 15 8 15 10 0 2 -7 4 -15 4 -8 0 -15
-4 -15 -10z"/>
<path d="M2940 762 c0 -10 21 -32 32 -32 16 0 8 19 -12 30 -11 6 -20 7 -20 2z"/>
<path d="M3188 763 c7 -3 16 -2 19 1 4 3 -2 6 -13 5 -11 0 -14 -3 -6 -6z"/>
<path d="M2987 725 c-3 -5 -5 -14 -5 -19 0 -5 -6 -13 -14 -18 -10 -8 -10 -9 2
-5 8 2 14 10 13 16 -2 6 1 11 5 11 5 0 16 6 26 13 16 12 16 13 -3 13 -11 0
-22 -5 -24 -11z"/>
<path d="M2880 716 c0 -2 8 -10 18 -17 15 -13 16 -12 3 4 -13 16 -21 21 -21
13z"/>
<path d="M2860 680 c-8 -5 -10 -10 -5 -10 6 0 17 5 25 10 8 5 11 10 5 10 -5 0
-17 -5 -25 -10z"/>
<path d="M2895 670 c-3 -5 -1 -10 4 -10 6 0 11 5 11 10 0 6 -2 10 -4 10 -3 0
-8 -4 -11 -10z"/>
<path d="M2926 665 c4 -8 10 -15 15 -15 5 0 9 7 9 15 0 8 -7 15 -15 15 -9 0
-12 -6 -9 -15z"/>
<path d="M3316 637 c3 -10 9 -15 12 -12 3 3 0 11 -7 18 -10 9 -11 8 -5 -6z"/>
<path d="M2820 620 c0 -11 2 -20 4 -20 2 0 6 9 9 20 3 11 1 20 -4 20 -5 0 -9
-9 -9 -20z"/>
<path d="M3050 614 c0 -8 5 -12 10 -9 6 4 8 11 5 16 -9 14 -15 11 -15 -7z"/>
<path d="M3307 609 c7 -7 15 -10 18 -7 3 3 -2 9 -12 12 -14 6 -15 5 -6 -5z"/>
<path d="M3230 570 c-14 -5 58 -8 170 -8 107 0 186 3 176 7 -26 10 -315 11
-346 1z"/>
<path d="M3814 568 c-3 -4 55 -7 128 -7 101 1 123 3 93 10 -49 10 -214 8 -221
-3z"/>
<path d="M3168 563 c6 -2 18 -2 25 0 6 3 1 5 -13 5 -14 0 -19 -2 -12 -5z"/>
<path d="M4438 563 c17 -2 47 -2 65 0 17 2 3 4 -33 4 -36 0 -50 -2 -32 -4z"/>
<path d="M4973 563 c15 -2 39 -2 55 0 15 2 2 4 -28 4 -30 0 -43 -2 -27 -4z"/>
<path d="M5478 563 c7 -3 16 -2 19 1 4 3 -2 6 -13 5 -11 0 -14 -3 -6 -6z"/>
</g>
</svg>
