<?xml version="1.0" standalone="no"?>
<!DOCTYPE svg PUBLIC "-//W3C//DTD SVG 20010904//EN"
 "http://www.w3.org/TR/2001/REC-SVG-20010904/DTD/svg10.dtd">
<svg version="1.0" xmlns="http://www.w3.org/2000/svg"
 width="929.000000pt" height="739.000000pt" viewBox="0 0 929.000000 739.000000"
 preserveAspectRatio="xMidYMid meet">

<g transform="translate(0.000000,739.000000) scale(0.100000,-0.100000)"
fill="#000000" stroke="none">
<path d="M1342 3333 l3 -2218 1458 -3 1457 -2 0 405 0 405 -990 0 -990 0 2
528 3 527 320 2 c176 1 444 2 596 3 l276 0 220 378 220 377 -818 3 -819 2 0
505 0 505 975 0 975 0 0 400 0 400 -1445 0 -1445 0 2 -2217z"/>
<path d="M4560 4760 l0 -790 460 0 460 0 0 395 0 395 538 0 c580 0 591 -1 709
-55 160 -73 255 -270 240 -495 -17 -240 -139 -396 -352 -450 -76 -19 -111 -20
-1204 -20 l-1127 0 -44 -22 c-31 -16 -56 -40 -81 -78 -35 -53 -389 -655 -389
-662 0 -2 647 -3 1438 -4 1305 -1 1443 -3 1506 -18 257 -62 385 -240 386 -536
0 -267 -135 -439 -390 -497 -66 -16 -142 -18 -650 -18 l-575 0 -3 417 -2 418
-460 0 -460 0 0 -815 0 -816 1168 4 c1152 3 1168 4 1282 25 631 121 1001 489
1049 1046 27 312 -40 590 -197 812 -102 145 -242 259 -425 348 l-107 53 85 52
c48 29 127 92 180 143 143 136 228 286 281 493 25 99 28 127 28 275 0 245 -34
401 -130 589 -148 292 -387 475 -727 556 -56 13 -142 29 -192 35 -56 6 -511
10 -1192 10 l-1103 0 0 -790z"/>
</g>
</svg>
