<?xml version="1.0" standalone="no"?>
<!DOCTYPE svg PUBLIC "-//W3C//DTD SVG 20010904//EN"
 "http://www.w3.org/TR/2001/REC-SVG-20010904/DTD/svg10.dtd">
<svg version="1.0" xmlns="http://www.w3.org/2000/svg"
 width="815.000000pt" height="754.000000pt" viewBox="0 0 815.000000 754.000000"
 preserveAspectRatio="xMidYMid meet">

<g transform="translate(0.000000,754.000000) scale(0.100000,-0.100000)"
fill="#FFFFFF" stroke="none">
<path d="M0 3770 l0 -3770 4075 0 4075 0 0 3770 0 3770 -4075 0 -4075 0 0
-3770z m3580 2132 l125 -2 -1 -313 c0 -171 -1 -351 -2 -399 l-2 -88 -970 0
-970 0 0 -505 0 -505 815 0 816 0 -37 -67 c-20 -38 -65 -115 -99 -173 -34 -58
-115 -198 -181 -311 l-118 -206 -291 -5 c-159 -3 -428 -4 -597 -4 l-308 1 0
-525 0 -526 958 2 c526 1 972 -1 990 -3 l32 -5 0 -409 0 -409 -1462 2 -1463 3
-1 2220 c0 1221 1 2222 2 2225 2 4 2446 6 2764 2z m2850 -21 c266 -53 457
-148 616 -307 146 -145 225 -281 284 -487 43 -151 54 -247 47 -426 -7 -195
-33 -306 -106 -448 -90 -174 -202 -297 -380 -417 l-73 -49 99 -51 c245 -129
400 -279 505 -491 73 -146 107 -297 115 -515 4 -121 2 -163 -16 -253 -31 -163
-64 -262 -124 -366 -177 -308 -490 -510 -912 -588 l-150 -28 -1155 0 -1155 0
0 815 0 815 468 3 467 2 0 -419 0 -419 583 4 c635 5 648 6 772 65 168 79 257
240 258 464 0 160 -52 296 -152 395 -59 59 -115 90 -221 123 -64 19 -95 20
-1507 21 -793 1 -1445 4 -1448 7 -5 6 149 273 336 585 65 108 86 135 116 150
36 18 91 19 1193 24 l1155 5 70 23 c164 55 265 165 310 339 45 173 -11 408
-122 516 -66 64 -87 77 -168 106 l-70 25 -552 4 -553 3 0 -396 0 -395 -465 0
-465 0 -2 98 c-5 279 -5 1263 -1 1364 l6 117 86 3 c47 2 563 2 1146 1 1032 -1
1063 -2 1165 -22z"/>
</g>
</svg>
